<?xml version="1.0" encoding="iso-8859-1"?>
<!-- Generator: Adobe Illustrator 18.0.0, SVG Export Plug-In . SVG Version: 6.00 Build 0)  -->
<!DOCTYPE svg PUBLIC "-//W3C//DTD SVG 1.1//EN" "http://www.w3.org/Graphics/SVG/1.1/DTD/svg11.dtd">
<svg version="1.1" id="&#x56FE;&#x5C42;_1" xmlns="http://www.w3.org/2000/svg" xmlns:xlink="http://www.w3.org/1999/xlink" x="0px"
	 y="0px" viewBox="0 0 64 64" enable-background="new 0 0 64 64" xml:space="preserve">
<g>
	<rect x="9" y="27" fill-rule="evenodd" clip-rule="evenodd" fill="#B5B5B6" width="3" height="10"/>
	<rect x="26" y="10" fill-rule="evenodd" clip-rule="evenodd" fill="#B5B5B6" width="12" height="3"/>
	<rect x="26" y="51" fill-rule="evenodd" clip-rule="evenodd" fill="#B5B5B6" width="11" height="3"/>
	<path fill-rule="evenodd" clip-rule="evenodd" fill="#B5B5B6" d="M9,13v9h3v-8c0-0.552,0.448-1,1-1h7v-3h-8
		C10.343,10,9,11.343,9,13z"/>
	<rect x="51" y="25" fill-rule="evenodd" clip-rule="evenodd" fill="#B5B5B6" width="3" height="12"/>
	<path fill-rule="evenodd" clip-rule="evenodd" fill="#B5B5B6" d="M54,13v7h-3v-6c0-0.552-0.448-1-1-1h-6v-3h7
		C52.657,10,54,11.343,54,13z"/>
	<path fill-rule="evenodd" clip-rule="evenodd" fill="#B5B5B6" d="M50,51h-8v3h9c1.657,0,3-1.343,3-3v-7h-3v6
		C51,50.552,50.552,51,50,51z"/>
	<path fill-rule="evenodd" clip-rule="evenodd" fill="#B5B5B6" d="M12,50v-6H9v7c0,1.657,1.343,3,3,3h8v-3h-7
		C12.448,51,12,50.552,12,50z"/>
	<path fill-rule="evenodd" clip-rule="evenodd" fill="#B5B5B6" d="M30.854,16.854l16.293,16.293C47.461,33.461,48,33.238,48,32.793
		V16.5c0-0.276-0.224-0.5-0.5-0.5H31.207C30.762,16,30.539,16.539,30.854,16.854z"/>
	
		<rect x="36.031" y="16.98" transform="matrix(0.7071 0.7071 -0.7071 0.7071 29.0249 -20.4373)" fill-rule="evenodd" clip-rule="evenodd" fill="#B5B5B6" width="6.304" height="15.676"/>
	<path fill-rule="evenodd" clip-rule="evenodd" fill="#B5B5B6" d="M37,54H11.963C10.327,54,9,52.673,9,51.037V27h28V54z"/>
</g>
</svg>
