<?xml version="1.0" encoding="iso-8859-1"?>
<!-- Generator: Adobe Illustrator 18.0.0, SVG Export Plug-In . SVG Version: 6.00 Build 0)  -->
<!DOCTYPE svg PUBLIC "-//W3C//DTD SVG 1.1//EN" "http://www.w3.org/Graphics/SVG/1.1/DTD/svg11.dtd">
<svg version="1.1" id="&#x56FE;&#x5C42;_1" xmlns="http://www.w3.org/2000/svg" xmlns:xlink="http://www.w3.org/1999/xlink" x="0px"
	 y="0px" viewBox="0 0 24 24" enable-background="new 0 0 24 24" xml:space="preserve">
<g>
	<path fill="#B5B5B6" d="M21,3.257C21,2.563,20.437,2,19.743,2H3.257C2.563,2,2,2.563,2,3.257v16.485C2,20.437,2.563,21,3.257,21
		h16.485C20.437,21,21,20.437,21,19.743V3.257z M10.984,8.281c-0.625-0.469-0.969-0.659-1.773-0.659C8.438,7.622,8,8.114,8,8.965V10
		h2v2H8v5H6v-5H4v-2h2V8.795c0-0.967,0.354-1.772,0.784-2.163c0.429-0.389,1.138-0.851,2.06-0.851c0.875,0,1.592,0.22,2.154,0.781
		L10.984,8.281z M18,17h-2v-3.314c0-1.186,0.038-2.342-1.156-2.342c-1.322,0-1.844,1.54-1.844,2.328V17h-2v-7h2v0.984
		c0.686-0.725,1.424-0.938,2.016-0.938C16.994,10.047,18,11.219,18,13V17z"/>
</g>
</svg>
