<?xml version="1.0" encoding="iso-8859-1"?>
<!-- Generator: Adobe Illustrator 18.0.0, SVG Export Plug-In . SVG Version: 6.00 Build 0)  -->
<!DOCTYPE svg PUBLIC "-//W3C//DTD SVG 1.1//EN" "http://www.w3.org/Graphics/SVG/1.1/DTD/svg11.dtd">
<svg version="1.1" id="&#x56FE;&#x5C42;_1" xmlns="http://www.w3.org/2000/svg" xmlns:xlink="http://www.w3.org/1999/xlink" x="0px"
	 y="0px" viewBox="0 0 24 24" enable-background="new 0 0 24 24" xml:space="preserve">
<path fill="#B5B5B6" d="M21,2.9C21,2.403,20.597,2,20.1,2H2.9C2.403,2,2,2.403,2,2.9v17.2C2,20.597,2.403,21,2.9,21h17.2
	c0.497,0,0.9-0.403,0.9-0.9V2.9z M11.334,12.778l2.791,1.806c0.247,0.16,0.557,0.191,0.83,0.083c1.433-0.566,3.003,0.5,3.003,2.073
	c0,1.229-0.986,2.225-2.203,2.225c-1.182,0-2.132-0.936-2.199-2.092c-0.017-0.296-0.174-0.568-0.421-0.728l-3.205-2.074
	c-0.286-0.185-0.651-0.195-0.947-0.027c-0.448,0.256-0.966,0.402-1.517,0.402c-1.707,0-3.09-1.398-3.09-3.122
	c0-1.724,1.384-3.122,3.09-3.122c0.551,0,1.069,0.146,1.517,0.402C9.28,8.774,9.644,8.764,9.931,8.579l3.205-2.074
	c0.248-0.16,0.404-0.431,0.421-0.728c0.067-1.155,1.016-2.092,2.199-2.092c1.216,0,2.203,0.996,2.203,2.225
	c0,1.576-1.572,2.639-3.003,2.073c-0.274-0.108-0.582-0.077-0.83,0.083l-2.759,1.785c-0.501,0.324-0.807,0.885-0.809,1.486v0
	C10.554,11.921,10.848,12.464,11.334,12.778z"/>
</svg>
