<?xml version="1.0" encoding="iso-8859-1"?>
<!-- Generator: Adobe Illustrator 18.0.0, SVG Export Plug-In . SVG Version: 6.00 Build 0)  -->
<!DOCTYPE svg PUBLIC "-//W3C//DTD SVG 1.1//EN" "http://www.w3.org/Graphics/SVG/1.1/DTD/svg11.dtd">
<svg version="1.1" id="&#x56FE;&#x5C42;_1" xmlns="http://www.w3.org/2000/svg" xmlns:xlink="http://www.w3.org/1999/xlink" x="0px"
	 y="0px" viewBox="0 0 64 64" enable-background="new 0 0 64 64" xml:space="preserve">
<g>
	<path fill="#B5B5B6" d="M36.901,40.924l-8.733,2.911c-0.404,0.135-0.824,0.203-1.246,0.203c-1.255,0-2.444-0.611-3.182-1.635
		c-0.734-1.019-0.935-2.34-0.537-3.534l2.911-8.733L38.251,18H14v31h36V27.825L36.901,40.924z"/>
	
		<rect x="37.198" y="14.415" transform="matrix(0.7071 0.7071 -0.7071 0.7071 30.0786 -22.1904)" fill="#B5B5B6" width="9.256" height="21.596"/>
	<path fill="#B5B5B6" d="M26.049,39.818l2.687-8.061l6.545,6.545l-8.061,2.687C26.496,41.23,25.808,40.542,26.049,39.818z"/>
	<path fill="#B5B5B6" d="M54.915,18.668l-6.545-6.545l2.182-2.182c1.205-1.205,3.158-1.205,4.363,0l2.182,2.182
		c1.205,1.205,1.205,3.158,0,4.363L54.915,18.668z"/>
	<path fill="#B5B5B6" d="M52,25.825V50c0,0.552-0.448,1-1,1H13c-0.552,0-1-0.448-1-1V17c0-0.552,0.448-1,1-1h27.251l3-3H12
		c-1.657,0-3,1.343-3,3v35c0,1.657,1.343,3,3,3h40c1.657,0,3-1.343,3-3V22.825L52,25.825z"/>
</g>
</svg>
