<?xml version="1.0" encoding="iso-8859-1"?>
<!-- Generator: Adobe Illustrator 18.0.0, SVG Export Plug-In . SVG Version: 6.00 Build 0)  -->
<!DOCTYPE svg PUBLIC "-//W3C//DTD SVG 1.1//EN" "http://www.w3.org/Graphics/SVG/1.1/DTD/svg11.dtd">
<svg version="1.1" id="&#x56FE;&#x5C42;_1" xmlns="http://www.w3.org/2000/svg" xmlns:xlink="http://www.w3.org/1999/xlink" x="0px"
	 y="0px" viewBox="0 0 64 64" enable-background="new 0 0 64 64" xml:space="preserve">
<g>
	<g>
		<rect x="17" y="36" fill="#B5B5B6" width="30" height="4"/>
		<rect x="17" y="43" fill="#B5B5B6" width="30" height="4"/>
		<path fill="#B5B5B6" d="M53.446,18.961l-8.305-8.393C44.781,10.204,44.291,10,43.78,10H13c-1.657,0-3,1.343-3,3v38
			c0,1.657,1.343,3,3,3h38c1.657,0,3-1.343,3-3V20.309C54,19.804,53.801,19.319,53.446,18.961z M19,14h23v11h-3v-6h-4v6H19V14z
			 M50,50H14V33h36V50z"/>
	</g>
</g>
</svg>
