<?xml version="1.0" encoding="iso-8859-1"?>
<!-- Generator: Adobe Illustrator 18.0.0, SVG Export Plug-In . SVG Version: 6.00 Build 0)  -->
<!DOCTYPE svg PUBLIC "-//W3C//DTD SVG 1.1//EN" "http://www.w3.org/Graphics/SVG/1.1/DTD/svg11.dtd">
<svg version="1.1" id="&#x56FE;&#x5C42;_1" xmlns="http://www.w3.org/2000/svg" xmlns:xlink="http://www.w3.org/1999/xlink" x="0px"
	 y="0px" viewBox="0 0 20 20" enable-background="new 0 0 20 20" xml:space="preserve">
<path fill="#898989" d="M2,5v11c0,0.552,0.448,1,1,1h14c0.552,0,1-0.448,1-1V5c0-0.552-0.448-1-1-1H3C2.448,4,2,4.448,2,5z M16,15H4
	V6h12V15z"/>
<path fill="#898989" d="M5.27,13.68l2.58-3.442c0.072-0.096,0.211-0.107,0.298-0.025l1.184,1.127
	c0.088,0.084,0.231,0.07,0.301-0.029l2.148-3.038c0.087-0.123,0.274-0.109,0.342,0.026l2.712,5.412
	c0.067,0.133-0.03,0.29-0.179,0.29H5.43C5.265,14,5.171,13.812,5.27,13.68z"/>
<circle fill="#898989" cx="6.988" cy="8.001" r="1"/>
</svg>
