<?xml version="1.0" encoding="iso-8859-1"?>
<!-- Generator: Adobe Illustrator 18.0.0, SVG Export Plug-In . SVG Version: 6.00 Build 0)  -->
<!DOCTYPE svg PUBLIC "-//W3C//DTD SVG 1.1//EN" "http://www.w3.org/Graphics/SVG/1.1/DTD/svg11.dtd">
<svg version="1.1" id="&#x56FE;&#x5C42;_1" xmlns="http://www.w3.org/2000/svg" xmlns:xlink="http://www.w3.org/1999/xlink" x="0px"
	 y="0px" viewBox="0 0 30 20" enable-background="new 0 0 30 20" xml:space="preserve">
<g>
	<path opacity="0.1" fill="#FFFFFF" d="M25.667,19.5H4.333c-2.108,0-3.833-1.725-3.833-3.833V4.333C0.5,2.225,2.225,0.5,4.333,0.5
		h21.334c2.108,0,3.833,1.725,3.833,3.833v11.334C29.5,17.775,27.775,19.5,25.667,19.5z"/>
	<g>
		<path fill="none" stroke="#CBCBCB" stroke-miterlimit="10" d="M25.5,19.5h-21c-2.209,0-4-1.791-4-4v-11c0-2.209,1.791-4,4-4h21
			c2.209,0,4,1.791,4,4v11C29.5,17.709,27.709,19.5,25.5,19.5z"/>
	</g>
</g>
<g>
	<path d="M4.639,6H3.774h-0.03H3v8h0.744h0.03h0.865C6.608,14,8,12.279,8,10.31V9.415C8,7.445,6.608,6,4.639,6z M7,10.31
		C7,11.791,6.12,13,4.639,13H4V7h0.639C6.12,7,7,7.934,7,9.415V10.31z"/>
	<g>
		<path d="M12.526,11.782H9.178c0.015,0.51,0.154,0.904,0.42,1.183s0.636,0.417,1.112,0.417c0.536,0,1.028-0.171,1.475-0.514v0.757
			c-0.421,0.297-0.979,0.446-1.674,0.446c-0.692,0-1.232-0.219-1.62-0.657c-0.388-0.438-0.582-1.047-0.582-1.825
			c0-0.732,0.213-1.337,0.638-1.812C9.371,9.298,9.9,9.061,10.532,9.061c0.626,0,1.114,0.201,1.466,0.603
			c0.352,0.403,0.528,0.966,0.528,1.689V11.782z M11.678,11.102c-0.003-0.433-0.105-0.767-0.307-1.004
			c-0.202-0.237-0.486-0.355-0.852-0.355c-0.337,0-0.629,0.125-0.876,0.377c-0.246,0.25-0.401,0.578-0.465,0.982H11.678z"/>
		<path d="M13,14V7h1v7H13z"/>
		<path d="M18.981,11.782h-3.348c0.015,0.51,0.154,0.904,0.42,1.183c0.265,0.278,0.636,0.417,1.112,0.417
			c0.536,0,1.028-0.171,1.475-0.514v0.757c-0.421,0.297-0.979,0.446-1.674,0.446c-0.692,0-1.232-0.219-1.62-0.657
			c-0.388-0.438-0.582-1.047-0.582-1.825c0-0.732,0.213-1.337,0.638-1.812c0.425-0.477,0.954-0.714,1.585-0.714
			c0.626,0,1.114,0.201,1.466,0.603c0.352,0.403,0.528,0.966,0.528,1.689V11.782z M18.133,11.102
			c-0.003-0.433-0.105-0.767-0.307-1.004c-0.202-0.237-0.486-0.355-0.852-0.355c-0.337,0-0.629,0.125-0.876,0.377
			c-0.246,0.25-0.401,0.578-0.465,0.982H18.133z"/>
		<path d="M22.07,13.91c-0.184,0.101-0.434,0.151-0.748,0.151c-0.856,0-1.285-0.474-1.285-1.424V9.874h-0.822V9.173h0.822V8.023
			l0.843-0.268v1.419h1.19v0.701h-1.19v2.613c0,0.315,0.053,0.54,0.16,0.675c0.107,0.135,0.284,0.203,0.532,0.203
			c0.19,0,0.356-0.053,0.497-0.16V13.91z"/>
		<path d="M26.959,11.782h-3.348c0.015,0.51,0.154,0.904,0.42,1.183s0.636,0.417,1.112,0.417c0.536,0,1.028-0.171,1.475-0.514v0.757
			c-0.421,0.297-0.979,0.446-1.674,0.446c-0.692,0-1.232-0.219-1.62-0.657c-0.388-0.438-0.582-1.047-0.582-1.825
			c0-0.732,0.213-1.337,0.638-1.812c0.425-0.477,0.954-0.714,1.585-0.714c0.626,0,1.114,0.201,1.466,0.603
			c0.352,0.403,0.528,0.966,0.528,1.689V11.782z M26.111,11.102c-0.003-0.433-0.105-0.767-0.307-1.004
			c-0.202-0.237-0.486-0.355-0.852-0.355c-0.337,0-0.629,0.125-0.876,0.377c-0.246,0.25-0.401,0.578-0.465,0.982H26.111z"/>
	</g>
</g>
</svg>
