<?xml version="1.0" encoding="UTF-8" standalone="no"?>
<!-- Created with Inkscape (http://www.inkscape.org/) -->

<svg
   xmlns:dc="http://purl.org/dc/elements/1.1/"
   xmlns:cc="http://creativecommons.org/ns#"
   xmlns:rdf="http://www.w3.org/1999/02/22-rdf-syntax-ns#"
   xmlns:svg="http://www.w3.org/2000/svg"
   xmlns="http://www.w3.org/2000/svg"
   xmlns:sodipodi="http://sodipodi.sourceforge.net/DTD/sodipodi-0.dtd"
   xmlns:inkscape="http://www.inkscape.org/namespaces/inkscape"
   version="1.1"
   id="svg2"
   width="23"
   height="18"
   viewBox="0 0 23 18"
   sodipodi:docname="xiaoshou.svg"
   inkscape:version="0.92.1 r15371">
  <metadata
     id="metadata8">
    <rdf:RDF>
      <cc:Work
         rdf:about="">
        <dc:format>image/svg+xml</dc:format>
        <dc:type
           rdf:resource="http://purl.org/dc/dcmitype/StillImage" />
        <dc:title></dc:title>
      </cc:Work>
    </rdf:RDF>
  </metadata>
  <defs
     id="defs6" />
  <sodipodi:namedview
     pagecolor="#ffffff"
     bordercolor="#666666"
     borderopacity="1"
     objecttolerance="10"
     gridtolerance="10"
     guidetolerance="10"
     inkscape:pageopacity="0"
     inkscape:pageshadow="2"
     inkscape:window-width="1920"
     inkscape:window-height="998"
     id="namedview4"
     showgrid="false"
     inkscape:zoom="1.6388889"
     inkscape:cx="79.536504"
     inkscape:cy="-0.78291802"
     inkscape:window-x="0"
     inkscape:window-y="0"
     inkscape:window-maximized="1"
     inkscape:current-layer="svg2" />
  <path
     style="fill:none;stroke:#000000;stroke-width:1px;stroke-linecap:butt;stroke-linejoin:miter;stroke-opacity:1"
     d="m 9.1803349,14.583593 c -0.04122,-0.164875 -0.03814,-0.10013 -0.03814,-0.190678 0,-0.02542 0.01137,-0.05353 0,-0.07627 -0.01608,-0.03216 -0.05633,-0.04636 -0.07627,-0.07627 -0.0071,-0.01058 0,-0.02542 0,-0.03814 0,-0.01604 0.0057,-0.217469 0,-0.228814 -0.008,-0.01608 -0.0301,-0.02206 -0.03814,-0.03814 -0.0057,-0.01137 0,-0.02542 0,-0.03814 v -0.114407 c 0,-0.02542 0.008,-0.05215 0,-0.07627 -0.009,-0.02697 -0.02915,-0.04931 -0.03814,-0.07627 -0.0076,-0.02274 0,-0.191865 0,-0.228814 v -0.03813 c 0,-0.01271 0.0057,-0.02677 0,-0.03814 -0.008,-0.01608 -0.03245,-0.02108 -0.03814,-0.03813 -0.0058,-0.01744 0.0085,-0.135573 0,-0.152543 -0.01608,-0.03216 -0.06019,-0.04411 -0.07627,-0.07627 -0.01525,-0.03051 0.01525,-0.0839 0,-0.114407 -0.01608,-0.03216 -0.06019,-0.04411 -0.07627,-0.07627 -0.0057,-0.01137 0.0057,-0.02677 0,-0.03814 -0.008,-0.01608 -0.02542,-0.02542 -0.03814,-0.03814 -0.01271,-0.01271 -0.02206,-0.0301 -0.03814,-0.03814 -0.01137,-0.0057 -0.02915,0.009 -0.03814,0 -0.009,-0.009 0.0057,-0.02677 0,-0.03814 -0.008,-0.01608 -0.02542,-0.02542 -0.03814,-0.03814 -0.01271,-0.01271 -0.02206,-0.0301 -0.03814,-0.03814 -0.01137,-0.0057 -0.02915,0.009 -0.03814,0 -0.009,-0.009 0.0057,-0.02677 0,-0.03814 -0.008,-0.01608 -0.02816,-0.02318 -0.03814,-0.03814 -0.01577,-0.02365 -0.01804,-0.05617 -0.03814,-0.07627 -0.01798,-0.01798 -0.05353,0.01137 -0.07627,0 -0.01608,-0.008 -0.02542,-0.02542 -0.03814,-0.03814 -0.02979,-0.02979 -0.0815,-0.09247 -0.114406,-0.114407 -0.02365,-0.01577 -0.05262,-0.02237 -0.07627,-0.03814 -0.01496,-0.01 -0.02108,-0.03245 -0.03814,-0.03814 -0.02412,-0.008 -0.05085,0 -0.07627,0 -0.01271,0 -0.02677,0.0057 -0.03814,0 -0.01608,-0.008 -0.02206,-0.0301 -0.03814,-0.03814 -0.01137,-0.0057 -0.02677,0.0057 -0.03814,0 -0.01608,-0.008 -0.02542,-0.02542 -0.03814,-0.03814 -0.01271,-0.01271 -0.02542,-0.02542 -0.03814,-0.03814 -0.12648,-0.12648 0.03595,0.01798 -0.07627,-0.03814 -0.03216,-0.01608 -0.04411,-0.06019 -0.07627,-0.07627 -0.03051,-0.01525 -0.0839,0.01525 -0.114407,0 -0.05841,-0.0292 -0.02982,-0.06796 -0.07627,-0.114407 -0.009,-0.009 -0.02677,0.0057 -0.03814,0 -0.01608,-0.008 -0.02206,-0.0301 -0.03814,-0.03814 -0.01137,-0.0057 -0.02608,0.004 -0.03814,0 -0.02697,-0.009 -0.04931,-0.02915 -0.07627,-0.03814 -0.01206,-0.004 -0.02677,0.0057 -0.03814,0 -0.01608,-0.008 -0.02542,-0.02542 -0.03814,-0.03814 -0.01271,-0.01271 -0.02542,-0.02542 -0.03814,-0.03814 -0.01271,-0.01271 -0.02542,-0.02542 -0.03814,-0.03814 -0.01271,-0.01271 -0.02206,-0.0301 -0.03814,-0.03814 -0.01137,-0.0057 -0.02677,0.0057 -0.03814,0 -0.03753,-0.01876 -0.115016,-0.133779 -0.152542,-0.152543 -0.02274,-0.01137 -0.05353,0.01137 -0.07627,0 -0.01608,-0.008 -0.02542,-0.02542 -0.03814,-0.03814 -0.01271,-0.01271 -0.02816,-0.02318 -0.03814,-0.03814 -0.01577,-0.02365 -0.02237,-0.05262 -0.03814,-0.07627 -0.05239,-0.07859 -0.07502,0.0025 -0.114407,-0.07627 -0.01137,-0.02274 0.01137,-0.05353 0,-0.07627 -0.02288,-0.04576 -0.09153,-0.06864 -0.114407,-0.114407 -0.0057,-0.01137 0.0057,-0.02677 0,-0.03814 -0.08727,-0.174531 0.01581,0.161825 -0.07627,-0.114407 -0.004,-0.01206 0.0057,-0.02677 0,-0.03814 -0.008,-0.01608 -0.0301,-0.02206 -0.03814,-0.03814 -0.0057,-0.01137 0.007,-0.02756 0,-0.03814 l -0.07627,-0.07627 c 0,-0.01271 0.0057,-0.02677 0,-0.03814 -0.008,-0.01608 -0.0301,-0.02206 -0.03814,-0.03814 -0.0057,-0.01137 0.004,-0.02608 0,-0.03814 -0.009,-0.02697 -0.02915,-0.04931 -0.03814,-0.07627 -0.008,-0.02412 0.01137,-0.05353 0,-0.07627 -0.008,-0.01598 -0.03008,-0.02195 -0.03812,-0.03803 -0.0057,-0.01137 0,-0.02542 0,-0.03814 0,-0.02542 0.008,-0.05215 0,-0.07627 -0.01137,-0.03411 -0.06019,-0.04411 -0.07627,-0.07627 -0.01158,-0.02316 0.01158,-0.205656 0,-0.228813 -0.008,-0.01608 0.008,0.01608 0,0 -0.005,-0.01003 -0.03814,-0.1707368 -0.03814,-0.1906787 0,-0.019942 -0.005,-0.1425149 0,-0.1525424 0.008,-0.016079 0.0301,-0.022056 0.03814,-0.038136 0.0263,-0.052603 -0.04618,-0.034111 0.03814,-0.076271 0.112226,-0.056113 -0.05021,0.088344 0.07627,-0.038136 0.02008,-0.020077 0.09404,-0.104223 0.114407,-0.1144068 0.03596,-0.017977 0.07845,-0.020158 0.114407,-0.038136 0.03216,-0.016079 0.04411,-0.060192 0.07627,-0.076271 0.03595,-0.017977 0.07708,-0.023206 0.114406,-0.038136 0.02639,-0.010557 0.04869,-0.031242 0.07627,-0.038136 0.02467,-0.00617 0.05215,0.00804 0.07627,0 0.01705,-0.00568 0.02206,-0.030096 0.03814,-0.038136 0.02274,-0.01137 0.05215,0.00804 0.07627,0 0.02697,-0.00899 0.04931,-0.029147 0.07627,-0.038136 0.01206,-0.00402 0.02677,0.00568 0.03814,0 0.174532,-0.087266 -0.161825,0.015806 0.114407,-0.076271 0.02412,-0.00804 0.05353,0.01137 0.07627,0 0.359708,-0.1798542 -0.0084,-0.00715 0.152542,-0.1144068 0.02365,-0.015767 0.05262,-0.022368 0.07627,-0.038136 0.01496,-0.00997 0.02542,-0.025424 0.03814,-0.038136 0.02442,-0.02442 0.116855,-0.1287469 0.152542,-0.1525388 l 0.07627,-0.038136 c 0.01271,0 0.02677,0.00568 0.03814,0 0.01608,-0.00804 0.02542,-0.025424 0.03814,-0.038136 l 0.03814,-0.038136 c 0.08744,-0.087439 -0.02412,0.016079 0.114407,-0.076271 0.01496,-0.00997 0.02542,-0.025424 0.03814,-0.038136 l 0.07627,-0.076271 c 0.01271,-0.012712 0.02206,-0.030096 0.03814,-0.038136 0.02274,-0.01137 0.05353,0.01137 0.07627,0 0.02037,-0.010184 0.09433,-0.09433 0.114407,-0.1144068 l 0.07627,-0.076271 c 0.01271,-0.012712 0.0301,-0.022056 0.03814,-0.038136 0.01137,-0.02274 -0.008,-0.052152 0,-0.076271 0.009,-0.026966 0.02915,-0.049305 0.03814,-0.076271 0.0086,-0.025906 0,-0.2177592 0,-0.2669491 0,-0.017175 0.0058,-0.1028008 0,-0.1144068 -0.008,-0.016079 -0.02542,-0.025424 -0.03814,-0.038136 -0.01271,-0.012712 -0.02206,-0.030096 -0.03814,-0.038136 -0.01137,-0.00568 -0.03245,0.01137 -0.03814,0 -0.01137,-0.02274 0.008,-0.052152 0,-0.076271 -0.0057,-0.017055 -0.0301,-0.022056 -0.03814,-0.038136 -0.0057,-0.01137 0.0057,-0.026766 0,-0.038136 -0.0169,-0.033801 -0.09126,-0.079691 -0.114407,-0.1144063 -0.03705,-0.055574 -0.02381,-0.079431 -0.07627,-0.1144068 -0.0844,-0.056269 -0.08656,-0.015438 -0.152542,-0.1144068 -0.0071,-0.010577 0.0057,-0.026766 0,-0.038136 -0.01608,-0.032159 -0.05633,-0.046355 -0.07627,-0.076271 -0.01577,-0.023651 -0.01804,-0.056172 -0.03814,-0.076271 -0.0789,-0.078904 0.0031,0.1205757 -0.07627,-0.038136 -0.0057,-0.01137 0.0057,-0.026766 0,-0.038136 -0.008,-0.016079 -0.02816,-0.023178 -0.03814,-0.038136 -0.01577,-0.023647 -0.02237,-0.052617 -0.03814,-0.076267 -0.03497,-0.052463 -0.05883,-0.039222 -0.114407,-0.076271 -0.05832,-0.038881 -0.02996,-0.052658 -0.07627,-0.1144068 -0.03985,-0.05313 -0.10443,-0.1044304 -0.152542,-0.1525424 -0.01271,-0.012712 -0.0301,-0.022056 -0.03814,-0.038136 -0.0057,-0.01137 0.0057,-0.026766 0,-0.038136 -0.0292,-0.058408 -0.06796,-0.029823 -0.114407,-0.076271 -0.009,-0.00899 0.0057,-0.026766 0,-0.038136 -0.01608,-0.032159 -0.06019,-0.044113 -0.07627,-0.076271 -0.0057,-0.01137 0.0031,-0.025803 0,-0.038136 -0.09633,-0.3853072 0.01377,0.027541 -0.07627,-0.1525424 -0.0057,-0.01137 0,-0.025424 0,-0.038136 0,-0.025424 0.008,-0.052152 0,-0.076271 -0.04712,-0.1413727 -0.03814,0.046486 -0.03814,-0.076271 V 5.5835919 5.5454559 5.6979987 5.4691845 c 0,-0.012712 -0.01271,-0.038136 0,-0.038136 0.01271,0 -0.009,0.047124 0,0.038136 0.0201,-0.020099 0.02237,-0.05262 0.03814,-0.076271 0.007,-0.010477 0.10637,-0.1117278 0.114407,-0.1144068 0.02412,-0.00804 0.05215,0.00804 0.07627,0 0.119033,-0.039678 -0.01271,-0.025424 0.03814,-0.076271 0.009,-0.00899 0.02677,0.00568 0.03814,0 0.03216,-0.016079 0.04636,-0.056327 0.07627,-0.076271 0.02365,-0.015767 0.05617,-0.018036 0.07627,-0.038136 0.0201,-0.020099 0.02237,-0.05262 0.03814,-0.076271 0.01233,-0.01849 0.172188,-0.1783516 0.190678,-0.190678 0.02365,-0.015767 0.05262,-0.022369 0.07627,-0.038136 0.01496,-0.00997 0.02206,-0.030096 0.03814,-0.038136 0.01137,-0.00568 0.02608,0.00402 0.03814,0 0.02697,-0.00899 0.04931,-0.029147 0.07627,-0.038136 0.01206,-0.00402 0.02542,0 0.03814,0 0.05834,0 0.08931,0.00402 0.152542,-0.038136 0.01058,-0.00705 -0.009,-0.029147 0,-0.038136 3.7e-5,-3.64e-5 0.114234,5.77e-5 0.114407,0 0.01705,-0.00568 0.02206,-0.030096 0.03814,-0.038136 0.02274,-0.01137 0.05829,0.017977 0.07627,0 0.0201,-0.020099 0.01804,-0.056172 0.03814,-0.076271 0.009,-0.00899 0.02542,0 0.03814,0 0.03229,0 0.13204,-0.00683 0.152542,0 0.01706,0.00568 0.02206,0.030096 0.03814,0.038136 0.01137,0.00568 0.02542,0 0.03814,0 0.0272,0 0.162526,-0.00704 0.190678,0 0.039,0.00975 0.07541,0.028386 0.114407,0.038136 0.01233,0.00308 0.02677,-0.00568 0.03814,0 0.01608,0.00804 0.02108,0.032451 0.03814,0.038136 0.02412,0.00804 0.05085,0 0.07627,0 0.01271,0 0.02756,-0.00705 0.03814,0 0.124164,0.082776 0.02214,0.070939 0.152542,0.1144068 0.02412,0.00804 0.05353,-0.01137 0.07627,0 0.01608,0.00804 0.02542,0.025424 0.03814,0.038136 0.01271,0.012712 0.0301,0.022056 0.03814,0.038136 0.0263,0.052603 -0.04618,0.034111 0.03814,0.076271 0.01137,0.00568 0.02677,-0.00568 0.03814,0 0.01013,0.00506 0.109344,0.1042814 0.114407,0.1144068 0.0057,0.01137 -0.0057,0.026766 0,0.038136 0.01876,0.037527 0.133779,0.1150158 0.152543,0.1525423 0.0057,0.01137 -0.0057,0.026766 0,0.038136 0.008,0.016079 0.0301,0.022056 0.03814,0.038136 0.0057,0.01137 -0.0057,0.026766 0,0.038136 0.02288,0.045763 0.09153,0.068644 0.114406,0.1144068 0.01137,0.02274 -0.01137,0.053532 0,0.076271 0.008,0.016079 0.03245,0.021081 0.03814,0.038136 0.01232,0.036962 -0.03543,0.1389292 0.03814,0.1144068 0.06926,-0.023088 0.07077,-0.032638 0.114407,-0.076271 0.01271,-0.012712 0.02206,-0.030096 0.03814,-0.038136 0.06751,-0.033754 0.01303,0.056724 0.07627,-0.038136 0.03705,-0.055574 0.02381,-0.079431 0.07627,-0.1144068 0.0473,-0.031534 0.105241,-0.044737 0.152542,-0.076271 0.02992,-0.019944 -0.09451,-0.2648209 -0.05856,-0.2650326 l 0.325508,-0.00192 0.152543,-0.1525424 c 0.01271,-0.012708 -0.145183,-0.170365 -0.137143,-0.186445 0.0057,-0.01137 0.168229,0.1207537 0.175279,0.1101767 0.01994,-0.029916 0.05085,-0.050847 0.07627,-0.076271 0.01271,-0.012712 0.0301,-0.022056 0.03814,-0.038136 0.0057,-0.01137 -0.0057,-0.026766 0,-0.038136 0.008,-0.016079 0.02816,-0.023177 0.03814,-0.038136 0.01577,-0.023651 0.02108,-0.053532 0.03814,-0.076271 0.03985,-0.05313 -0.05737,-0.077465 -0.0093,-0.1255765 0.06899,-0.068988 0.294508,-0.1856104 0.390609,-0.2176439 0.02086,-0.00695 0.224737,-0.00204 0.228813,0 0.01608,0.00804 0.02206,0.030096 0.03814,0.038136 0.03051,0.015254 0.0839,-0.015254 0.114406,0 0.158712,0.079356 -0.04077,-0.00263 0.03814,0.076271 0.009,0.00899 0.140486,0.072251 0.152546,0.076271 0.276232,0.092077 -0.174536,-0.087266 0,0 0.03596,0.017977 0.07845,0.020158 0.114407,0.038136 0.03216,0.016079 0.04636,0.056327 0.07627,0.076271 0.0473,0.031534 0.105241,0.044737 0.152543,0.076271 0.0436,0.029065 0.06953,0.087481 0.114406,0.1144068 l 0.152543,0.076271 c 0.01271,0 0.02677,-0.00568 0.03814,0 0.01608,0.00804 0.02542,0.025424 0.03814,0.038136 0.01271,0.012712 0.0301,0.022056 0.03814,0.038136 0.0057,0.01137 -0.0057,0.026766 0,0.038136 0.03025,0.060504 0.04602,0.015767 0.07627,0.076271 0.05611,0.1122257 -0.08834,-0.050209 0.03814,0.076271 0.02008,0.020077 0.104223,0.094039 0.114407,0.1144067 0.01137,0.02274 -0.01137,0.053532 0,0.076271 0.04216,0.08432 0.02367,0.011834 0.07627,0.038136 0.01608,0.00804 0.02542,0.025424 0.03814,0.038136 0.01271,0.012712 0.0301,0.022056 0.03814,0.038136 0.0057,0.01137 -0.0057,0.026766 0,0.038136 0.008,0.016079 0.03009,0.022056 0.03814,0.038136 0.0057,0.01137 -0.0057,0.026766 0,0.038136 0.008,0.016079 0.03245,0.021081 0.03814,0.038136 0.008,0.024119 0.02542,0.076271 0,0.076271 -0.02542,0 0,-0.050848 0,-0.076271 V 5.3166452 5.0878317 5.0496957 c 0,-0.012712 -0.0057,-0.026766 0,-0.038136 0.0058,-0.011538 0.141004,-0.1467734 0.152542,-0.1525424 0.03595,-0.017977 0.07845,-0.020158 0.114407,-0.038136 0.01608,-0.00804 0.02206,-0.030096 0.03814,-0.038136 0.112226,-0.056113 -0.05021,0.088344 0.07627,-0.038136 0.12648,-0.1264798 -0.03595,0.017977 0.07627,-0.038136 0.03216,-0.016079 0.04411,-0.060192 0.07627,-0.076271 0.02364,-0.01182 0.167272,0.011703 0.190678,0 0.03216,-0.016079 0.04635,-0.056327 0.07627,-0.076271 0.01058,-0.00705 0.02677,0.00568 0.03814,0 0.01608,-0.00804 0.02206,-0.030096 0.03813,-0.038136 0.02274,-0.01137 0.05353,0.01137 0.07627,0 0.01608,-0.00804 0.02206,-0.030096 0.03813,-0.038136 0.01161,-0.0058 0.09723,0 0.114407,0 h 0.266949 c 0.0091,0 0.143995,0.00427 0.152542,0 0.01608,-0.00804 0.02206,-0.030096 0.03814,-0.038136 0.01137,-0.00568 0.02542,0 0.03814,0 h 0.07627 0.266949 c 0.02945,0 0.205547,-0.00776 0.228814,0 0.02697,0.00899 0.04931,0.029147 0.07627,0.038136 0.01206,0.00402 0.02756,-0.00705 0.03814,0 0.02992,0.019944 0.05085,0.050847 0.07627,0.076271 0.01271,0.012712 0.02206,0.030096 0.03814,0.038136 0.01137,0.00569 0.02677,-0.00568 0.03814,0 0.03216,0.016079 0.04411,0.060192 0.07627,0.076271 0.01137,0.00569 0.02677,-0.00568 0.03814,0 0.04576,0.022881 0.06864,0.091526 0.114407,0.1144068 0.01137,0.00568 0.02677,-0.00568 0.03814,0 0.01608,0.00804 0.02542,0.025424 0.03813,0.038136 0.01271,0.012712 0.0301,0.022056 0.03814,0.038136 0.0057,0.01137 -0.004,0.026076 0,0.038136 0.09208,0.276232 -0.011,-0.060125 0.07627,0.1144068 0.04651,0.093025 0.03814,0.1687692 0.03814,0.2669491 0,0.025424 -0.008,0.052152 0,0.076271 0.0057,0.017055 0.03245,0.021081 0.03813,0.038136 0.0077,0.023105 0,0.3027986 0,0.3050848 V 6.422576 6.38444 c 0,-0.012712 -0.0057,-0.026766 0,-0.038136 0.04713,-0.094248 0.03814,0.013164 0.03814,-0.076271 0,-0.038136 -0.01416,-0.078999 0,-0.1144068 0.01335,-0.033383 0.05633,-0.046355 0.07627,-0.076271 0.0071,-0.010577 -0.0057,-0.026766 0,-0.038136 0.008,-0.016079 0.0301,-0.022056 0.03814,-0.038136 0.01137,-0.02274 -0.01137,-0.053532 0,-0.076271 0.0077,-0.015403 0.151399,-0.1513993 0.152542,-0.1525424 0.02243,-0.022429 0.134883,-0.1437124 0.152543,-0.1525423 0.04034,-0.020168 0.03593,0.020168 0.07627,0 0.03216,-0.016079 0.04411,-0.060192 0.07627,-0.076271 0.01137,-0.00568 0.02677,0.00568 0.03814,0 0.03216,-0.016079 0.04411,-0.060192 0.07627,-0.076271 0.01137,-0.00568 0.03814,-0.012712 0.03814,0 0,0.012712 -0.05085,0 -0.03814,0 h 0.114406 0.03814 c 0.01271,0 0.02756,-0.00705 0.03814,0 0.02992,0.019944 0.04411,0.060192 0.07627,0.076271 0.02274,0.01137 0.05215,-0.00804 0.07627,0 0.01706,0.00568 0.02206,0.030096 0.03814,0.038136 0.03595,0.017977 0.07845,0.020158 0.114406,0.038136 0.01608,0.00804 0.02318,0.028164 0.03814,0.038136 0.02365,0.015767 0.05262,0.022368 0.07627,0.038136 0.02992,0.019944 0.04411,0.060192 0.07627,0.076271 0.01137,0.00568 0.02677,-0.00568 0.03814,0 0.03216,0.016079 0.04411,0.060192 0.07627,0.076271 0.01137,0.00568 0.02677,-0.00568 0.03814,0 0.01766,0.00883 0.130113,0.1301132 0.152542,0.1525424 0.02008,0.020077 0.104223,0.094039 0.114407,0.1144068 0.0057,0.01137 -0.0057,0.026766 0,0.038136 0.008,0.016079 0.03245,0.021081 0.03814,0.038136 0.008,0.024119 -0.008,0.052152 0,0.076271 0.0057,0.017055 0.03009,0.022056 0.03814,0.038136 0.0057,0.01137 0,0.025424 0,0.038136 0.02542,0.025424 0.05633,0.046355 0.07627,0.076271 0.0141,0.021154 -0.01137,0.053532 0,0.076271 0.008,0.016079 0.03378,0.020695 0.03814,0.038136 0.01233,0.049329 -0.01233,0.1032131 0,0.1525424 0.0097,0.038998 0.02839,0.075408 0.03814,0.1144068 0.0078,0.031379 0,0.1938269 0,0.2288135 0,0.012712 -0.0057,0.026766 0,0.038136 0.008,0.016079 0.0301,0.022056 0.03814,0.038136 0.0058,0.011595 0,0.1262089 0,0.1525424 v 0.3432203 0.8771187 0.3813559 c 0,0.00906 0.0043,0.143995 0,0.1525424 -0.008,0.016079 -0.03245,0.021081 -0.03814,0.038136 -0.006,0.018142 0.0079,0.1788847 0,0.1906779 -0.01994,0.029916 -0.05633,0.046355 -0.07627,0.076271 -0.03945,0.059178 0.06478,0.024812 -0.03814,0.076271 -0.01137,0.00568 -0.02915,-0.00899 -0.03814,0 -0.01798,0.017977 0.008,0.052152 0,0.076271 -0.03692,0.1107704 -0.03991,0.053211 -0.114407,0.1525424 -0.01705,0.02274 -0.02237,0.05262 -0.03814,0.076271 -0.03741,0.056116 -0.115132,0.096427 -0.152543,0.1525424 -0.0071,0.010577 0.0057,0.026766 0,0.038136 -0.008,0.016079 -0.0301,0.022056 -0.03814,0.038136 -0.0057,0.01137 0,0.025424 0,0.038136 -0.01271,0.025424 -0.02108,0.053532 -0.03814,0.076271 -0.02157,0.02876 -0.05633,0.04636 -0.07627,0.07627 -0.0071,0.01058 0.009,0.02915 0,0.03814 -0.009,0.009 -0.02915,-0.009 -0.03814,0 -0.01798,0.01798 0.008,0.05215 0,0.07627 -0.009,0.02697 -0.02542,0.05085 -0.03814,0.07627 -0.01271,0.02542 -0.02108,0.05353 -0.03814,0.07627 -0.01225,0.01633 -0.140981,0.129421 -0.152542,0.152542 -0.0057,0.01137 0.0057,0.02677 0,0.03814 -0.12648,0.12648 0.01798,-0.03595 -0.03814,0.07627 -0.01608,0.03216 -0.06019,0.04411 -0.07627,0.07627 -0.0057,0.01137 0.0057,0.02677 0,0.03814 -0.01457,0.02913 -0.105799,0.08858 -0.114407,0.114407 -0.008,0.02412 0.008,0.05215 0,0.07627 -0.0078,0.0233 -0.131114,0.1204 -0.152542,0.152542 -0.04382,0.06573 -0.03814,0.05764 -0.03814,0.114407 0,0.01271 0.0057,0.02676 0,0.03813 -0.02288,0.04576 -0.09152,0.06864 -0.114406,0.114407 -0.0057,0.01137 0.0057,0.02677 0,0.03814 -0.008,0.01608 -0.03245,0.02108 -0.03814,0.03813 -0.008,0.02412 0.008,0.05215 0,0.07627 -0.0057,0.01706 -0.0301,0.02206 -0.03814,0.03814 -0.0057,0.01137 0.0057,0.02677 0,0.03814 -0.01608,0.03216 -0.06019,0.04411 -0.07627,0.07627 -0.0057,0.01134 0,0.212771 0,0.228813 0,0.01271 0.0057,0.02677 0,0.03814 -0.008,0.01608 -0.0301,0.02206 -0.03813,0.03814 -0.01199,0.02397 0.01198,0.128574 0,0.152543 -0.008,0.01608 -0.0301,0.02206 -0.03814,0.03814 -0.0057,0.01137 0,0.02542 0,0.03814 0,0.02726 0.0065,0.209292 0,0.228814 -0.0057,0.01705 -0.0301,0.02206 -0.03814,0.03814 -0.01198,0.02397 0.01199,0.128573 0,0.152543 -0.03945,0 -0.05271,-0.009 -0.07627,0.03814 -0.0057,0.01137 0,0.02542 0,0.03814 0,0.02726 0.0065,0.209292 0,0.228813 -0.0057,0.01705 -0.0301,0.02206 -0.03813,0.03814 -0.01525,0.03051 0.01525,0.0839 0,0.114407 -0.008,0.01608 -0.0301,0.02206 -0.03814,0.03813 -0.0057,0.01137 0,0.02542 0,0.03814 v 0.03813 c 0,0.04414 0.0085,0.156632 0,0.190678 0.02299,0.06902 -0.06178,0.07093 -0.07627,0.114407 -0.02412,0.03422 0.01206,0.07823 0,0.114407 -0.009,0.02697 -0.03124,0.0487 -0.03814,0.07627 -0.0092,0.037 0,0.07627 0,0.114407 v 0.228813 0.343221 0.03814 c 0,0.01271 0.01271,0.03814 0,0.03814 -0.01271,0 0,-0.05085 0,-0.03814 0,0.02542 -0.008,0.05215 0,0.07627 0.04712,0.141372 0.03814,-0.04649 0.03814,0.07627 0,0.01271 0.01271,0.03814 0,0.03814 -0.01271,0 0,-0.05085 0,-0.03814 v 0.07627 c 0,0.01271 0.01271,0.03814 0,0.03814 -0.01271,0 0,-0.05085 0,-0.03814 v 0.114407"
     id="path14"
     inkscape:connector-curvature="0"
     sodipodi:nodetypes="csccsccssscssccccccccccccccccccccccsccccccccccccccccccccccccccccsccccccccccsccccsccssccccccscccccccccccsscsssscssccscscsccccccccccccccsccccccccscscccssccccccccccccccscccsscsccsccccscccsccccccccccccccscccscsccsccccscccccccccccccccccccccccccccssccscccssccccccscssccscscccsccccccscccsccscscscccscccccccsscsccccsccccccccccccccccccsccsccscccccccccccccccccccccccccccssccccccccsccccsccccsccccssccccsccssscssssssc" />
</svg>
