<?xml version="1.0" encoding="iso-8859-1"?>
<!-- Generator: Adobe Illustrator 18.0.0, SVG Export Plug-In . SVG Version: 6.00 Build 0)  -->
<!DOCTYPE svg PUBLIC "-//W3C//DTD SVG 1.1//EN" "http://www.w3.org/Graphics/SVG/1.1/DTD/svg11.dtd">
<svg version="1.1" id="&#x56FE;&#x5C42;_1" xmlns="http://www.w3.org/2000/svg" xmlns:xlink="http://www.w3.org/1999/xlink" x="0px"
	 y="0px" viewBox="0 0 24 24" enable-background="new 0 0 24 24" xml:space="preserve">
<g>
	<path fill-rule="evenodd" clip-rule="evenodd" fill="#B5B5B6" d="M16.202,8.615L19,11.404V4h-7.429l2.786,2.777L12.154,8.98
		L12.174,9H2v1v4v3v3v0.039C2,20.562,2.424,21,2.947,21H3h3h3h5h0V10.817L16.202,8.615z"/>
	<rect x="9" y="2" fill-rule="evenodd" clip-rule="evenodd" fill="#B5B5B6" width="5" height="1"/>
	<path fill-rule="evenodd" clip-rule="evenodd" fill="#B5B5B6" d="M3,3h3V2H3C2.448,2,2,2.448,2,3v3h1V3z"/>
	<rect x="20" y="8" fill-rule="evenodd" clip-rule="evenodd" fill="#B5B5B6" width="1" height="6"/>
	<path fill-rule="evenodd" clip-rule="evenodd" fill="#B5B5B6" d="M20,2h-3v1h3v3h1V3C21,2.448,20.552,2,20,2z"/>
	<path fill-rule="evenodd" clip-rule="evenodd" fill="#B5B5B6" d="M20,20h-3v1h3c0.552,0,1-0.448,1-1v-3h-1V20z"/>
</g>
</svg>
