<?xml version="1.0" encoding="iso-8859-1"?>
<!-- Generator: Adobe Illustrator 18.0.0, SVG Export Plug-In . SVG Version: 6.00 Build 0)  -->
<!DOCTYPE svg PUBLIC "-//W3C//DTD SVG 1.1//EN" "http://www.w3.org/Graphics/SVG/1.1/DTD/svg11.dtd">
<svg version="1.1" id="&#x56FE;&#x5C42;_1" xmlns="http://www.w3.org/2000/svg" xmlns:xlink="http://www.w3.org/1999/xlink" x="0px"
	 y="0px" viewBox="0 0 64 64" enable-background="new 0 0 64 64" xml:space="preserve">
<g>
	<polygon fill="#B5B5B6" points="23.961,33 23.961,33 23.96,33 	"/>
	<path fill="#B5B5B6" d="M45,35V24.005c-5.598,0.507-10,5.185-10,10.889V35H45z"/>
	<path fill="#B5B5B6" d="M47,35h10v-0.098c0-5.712-4.39-10.398-10-10.898V35z"/>
	<path fill="#B5B5B6" d="M35.021,37l0.005,10.006c0.002,6.044,4.928,10.945,11.001,10.948c6.073,0.002,10.995-4.896,10.993-10.94
		L57.015,37H35.021z"/>
	<path fill="#B5B5B6" d="M33.021,37H33v-2.106c0-6.732,5.081-12.27,11.819-12.88L45,21.997V11c0-1.654-1.346-3-3-3H23
		c-1.654,0-3,1.346-3,3v8c0,0.551-0.449,1-1,1h-9c-1.654,0-3,1.346-3,3v20c0,1.654,1.346,3,3,3h23.026L33.021,37z M32,33.946
		C32,34.498,31.505,35,30.961,35h0H24v3.446c0,0.552-0.457,1.001-1.018,1.001c-0.218,0-0.427-0.069-0.602-0.201l-6.676-5
		c-0.256-0.192-0.403-0.485-0.403-0.804c0-0.317,0.145-0.607,0.398-0.796l6.684-5c0.175-0.131,0.383-0.201,0.601-0.201
		c0.56,0,1.016,0.449,1.016,1.001V32l5-0.016V21.446v0v0c0-0.827,0.673-1.5,1.5-1.5c0.827,0,1.5,0.673,1.5,1.5V33.946z"/>
</g>
</svg>
