<?xml version="1.0" encoding="iso-8859-1"?>
<!-- Generator: Adobe Illustrator 18.0.0, SVG Export Plug-In . SVG Version: 6.00 Build 0)  -->
<!DOCTYPE svg PUBLIC "-//W3C//DTD SVG 1.1//EN" "http://www.w3.org/Graphics/SVG/1.1/DTD/svg11.dtd">
<svg version="1.1" id="&#x56FE;&#x5C42;_1" xmlns="http://www.w3.org/2000/svg" xmlns:xlink="http://www.w3.org/1999/xlink" x="0px"
	 y="0px" viewBox="0 0 24 24" enable-background="new 0 0 24 24" xml:space="preserve">
<g>
	<path fill="#B5B5B6" d="M14.207,15.342l-3.852,1.274c-0.177,0.059-0.376,0.089-0.561,0.089c-0.549,0-1.077-0.267-1.4-0.715
		c-0.321-0.446-0.413-1.024-0.239-1.546l1.271-3.977L15.016,5H4v14h16V9.484L14.207,15.342z"/>
	
		<rect x="14.274" y="3.744" transform="matrix(0.7071 0.7071 -0.7071 0.7071 10.7616 -9.0446)" fill="#B5B5B6" width="4.049" height="9.448"/>
	<path fill="#B5B5B6" d="M9.396,14.858l1.176-3.527l2.863,2.863L9.909,15.37C9.592,15.476,9.291,15.175,9.396,14.858z"/>
	<path fill="#B5B5B6" d="M22.025,5.605l-2.863-2.863l0.954-0.954c0.527-0.527,1.382-0.527,1.909,0l0.954,0.954
		c0.527,0.527,0.527,1.382,0,1.909L22.025,5.605z"/>
	<path fill="#B5B5B6" d="M20.984,8.468L21,20H3V4l12.734,0.016L16.75,3H3C2.45,3,2,3.45,2,4v16c0,0.552,0.448,1,1,1h18
		c0.552,0,1-0.448,1-1V7.299L20.984,8.468z"/>
</g>
</svg>
