<?xml version="1.0" encoding="UTF-8" standalone="no"?>
<svg width="26px" height="25px" viewBox="0 0 26 25" version="1.1" xmlns="http://www.w3.org/2000/svg" xmlns:xlink="http://www.w3.org/1999/xlink" xmlns:sketch="http://www.bohemiancoding.com/sketch/ns">
    <!-- Generator: Sketch 3.3.2 (12043) - http://www.bohemiancoding.com/sketch -->
    <title>天蓝</title>
    <desc>Created with Sketch.</desc>
    <defs>
        <filter x="-50%" y="-50%" width="200%" height="200%" filterUnits="objectBoundingBox" id="filter-1">
            <feOffset dx="-0" dy="-1" in="SourceAlpha" result="shadowOffsetInner1"></feOffset>
            <feGaussianBlur stdDeviation="0" in="shadowOffsetInner1" result="shadowBlurInner1"></feGaussianBlur>
            <feComposite in="shadowBlurInner1" in2="SourceAlpha" operator="arithmetic" k2="-1" k3="1" result="shadowInnerInner1"></feComposite>
            <feColorMatrix values="0 0 0 0 0.207843137   0 0 0 0 0.407843137   0 0 0 0 0.996078431  0 0 0 0.7 0" in="shadowInnerInner1" type="matrix" result="shadowMatrixInner1"></feColorMatrix>
            <feMerge>
                <feMergeNode in="SourceGraphic"></feMergeNode>
                <feMergeNode in="shadowMatrixInner1"></feMergeNode>
            </feMerge>
        </filter>
        <linearGradient x1="50.602138%" y1="0%" x2="50%" y2="100%" id="linearGradient-2">
            <stop stop-color="#242424" offset="0%"></stop>
            <stop stop-color="#000000" offset="100%"></stop>
        </linearGradient>
        <filter x="-50%" y="-50%" width="200%" height="200%" filterUnits="objectBoundingBox" id="filter-3">
            <feOffset dx="0" dy="0" in="SourceAlpha" result="shadowOffsetInner1"></feOffset>
            <feGaussianBlur stdDeviation="0.5" in="shadowOffsetInner1" result="shadowBlurInner1"></feGaussianBlur>
            <feComposite in="shadowBlurInner1" in2="SourceAlpha" operator="arithmetic" k2="-1" k3="1" result="shadowInnerInner1"></feComposite>
            <feColorMatrix values="0 0 0 0 0.846141582   0 0 0 0 0.296458205   0 0 0 0 0.00285452593  0 0 0 0.35 0" in="shadowInnerInner1" type="matrix" result="shadowMatrixInner1"></feColorMatrix>
            <feMerge>
                <feMergeNode in="SourceGraphic"></feMergeNode>
                <feMergeNode in="shadowMatrixInner1"></feMergeNode>
            </feMerge>
        </filter>
        <path id="path-4" d="M4.97379915e-14,3.44615385 C4.97379915e-14,6.89230769 0.304761905,6.99373887 0.304761905,6.99373887 L22.4507937,6.53876318 C22.4507937,6.53876318 23.3650794,6.24121242 23.3650794,3.45353877 C23.3650794,0.665865126 22.4507937,0.461236817 22.4507937,0.461236817 L0.304761905,0.00626113326 C0.304761905,0.00626113326 4.97379915e-14,7.56911894e-14 4.97379915e-14,3.44615385 Z"></path>
        <linearGradient x1="50%" y1="0%" x2="50%" y2="100%" id="linearGradient-6">
            <stop stop-color="#FFFFFF" stop-opacity="0.775617074" offset="0%"></stop>
            <stop stop-color="#FFFFFF" stop-opacity="0.493234828" offset="100%"></stop>
        </linearGradient>
        <linearGradient x1="50.602138%" y1="0%" x2="50%" y2="100%" id="linearGradient-7">
            <stop stop-color="#282828" offset="0%"></stop>
            <stop stop-color="#000000" offset="100%"></stop>
        </linearGradient>
        <filter x="-50%" y="-50%" width="200%" height="200%" filterUnits="objectBoundingBox" id="filter-8">
            <feOffset dx="0" dy="0" in="SourceAlpha" result="shadowOffsetInner1"></feOffset>
            <feGaussianBlur stdDeviation="0" in="shadowOffsetInner1" result="shadowBlurInner1"></feGaussianBlur>
            <feComposite in="shadowBlurInner1" in2="SourceAlpha" operator="arithmetic" k2="-1" k3="1" result="shadowInnerInner1"></feComposite>
            <feColorMatrix values="0 0 0 0 0   0 0 0 0 0   0 0 0 0 0  0 0 0 0.7 0" in="shadowInnerInner1" type="matrix" result="shadowMatrixInner1"></feColorMatrix>
            <feMerge>
                <feMergeNode in="SourceGraphic"></feMergeNode>
                <feMergeNode in="shadowMatrixInner1"></feMergeNode>
            </feMerge>
        </filter>
        <linearGradient x1="50.602138%" y1="0%" x2="50%" y2="100%" id="linearGradient-9">
            <stop stop-color="#FCFCFC" stop-opacity="0.21" offset="0%"></stop>
            <stop stop-color="#FFFFFF" stop-opacity="0.5" offset="100%"></stop>
        </linearGradient>
    </defs>
    <g id="Page-1" stroke="none" stroke-width="1" fill="none" fill-rule="evenodd" sketch:type="MSPage">
        <g id="天蓝" sketch:type="MSLayerGroup" transform="translate(12.051858, 13.500000) rotate(-44.000000) translate(-12.051858, -13.500000) translate(-3.948142, 10.000000)">
            <path d="M0,2.69230769 L0.338624339,4.41538462 L2.03174603,4.41538462 L2.03174603,2.69230769 L0,2.69230769 Z" id="Rectangle-57" fill="#00AAFF" filter="url(#filter-1)" sketch:type="MSShapeGroup"></path>
            <path d="M1.93015873,4.6539058 C1.93015873,4.6539058 3.87932825,4.42950639 5.08887048,5.01475319 C6.2984127,5.6 7.21269841,7 7.21269841,7 L7.21269841,0 C7.21269841,0 6.4,1.72307692 4.9565189,2.25941172 C3.51303779,2.79574653 1.93015873,2.45378651 1.93015873,2.45378651 L1.93015873,4.6539058 Z" id="Rectangle-58" stroke="#000000" stroke-width="0.5" fill="url(#linearGradient-2)" sketch:type="MSShapeGroup"></path>
            <g id="Rectangle-59-+-Rectangle-58" transform="translate(8.634921, -0.000000)">
                <mask id="mask-5" sketch:name="Rectangle 59" fill="white">
                    <use xlink:href="#path-4"></use>
                </mask>
                <use id="Rectangle-59" stroke="#3468FF" stroke-width="0.5" fill="#00AAFF" filter="url(#filter-3)" sketch:type="MSShapeGroup" xlink:href="#path-4"></use>
                <path d="M-0.352842347,3.18733682 L23.3650794,3.07964451 L23.3650794,1.5719522 L-0.352842347,1.46425989 L-0.352842347,3.18733682 Z" id="Rectangle-58" fill="url(#linearGradient-6)" sketch:type="MSShapeGroup" mask="url(#mask-5)"></path>
            </g>
            <path d="M7.21269841,6.97648854 L9.04126984,7.00328145 C9.04126984,7.00328145 8.83809524,6.6751145 8.83809524,3.34931298 C8.83809524,0.0235114583 9.04126984,-0.00328144687 9.04126984,-0.00328144687 L7.21269841,0.0235114582 C7.21269841,0.0235114582 7.00952381,-1.54055117e-07 7.00952381,3.33846154 C7.00952381,6.67692323 7.21269841,6.97648854 7.21269841,6.97648854 Z" id="Rectangle-58" stroke="#000000" stroke-width="0.5" fill="url(#linearGradient-7)" filter="url(#filter-8)" sketch:type="MSShapeGroup"></path>
            <path d="M7.2431746,3.32743426 L8.63492063,3.33846154 C8.63492063,3.33846154 8.60444444,3.2033964 8.60444444,1.83458134 C8.60444444,0.465766282 8.73650794,0.454739006 8.73650794,0.454739006 L7.3447619,0.465766282 C7.3447619,0.465766282 7.21269841,0.969230754 7.21269841,1.83011516 C7.21269841,3.20414082 7.2431746,3.32743426 7.2431746,3.32743426 Z" id="Rectangle-59" fill="url(#linearGradient-9)" sketch:type="MSShapeGroup"></path>
            <path d="M2.13333333,3.23076923 L7.00952381,3.23076923 L7.00952381,0.753846154 C6.90793651,0.861538462 6.5015873,1.93846154 5.07936508,2.47692308 C3.65714286,3.01538462 2.13333333,2.69230769 2.13333333,2.69230769 L2.13333333,3.23076923 Z" id="Path-199" fill="url(#linearGradient-9)" sketch:type="MSShapeGroup"></path>
        </g>
    </g>
</svg>