<?xml version="1.0" encoding="iso-8859-1"?>
<!-- Generator: Adobe Illustrator 18.0.0, SVG Export Plug-In . SVG Version: 6.00 Build 0)  -->
<!DOCTYPE svg PUBLIC "-//W3C//DTD SVG 1.1//EN" "http://www.w3.org/Graphics/SVG/1.1/DTD/svg11.dtd">
<svg version="1.1" id="&#x56FE;&#x5C42;_1" xmlns="http://www.w3.org/2000/svg" xmlns:xlink="http://www.w3.org/1999/xlink" x="0px"
	 y="0px" viewBox="0 0 20 20" enable-background="new 0 0 20 20" xml:space="preserve">
<path fill="#898989" d="M13.541,7c-0.714,0-1.362,0.26-1.877,0.677L7.715,5.23C7.718,5.19,7.727,5.153,7.727,5.114
	C7.727,3.946,6.781,3,5.614,3C4.446,3,3.5,3.946,3.5,5.114s0.946,2.114,2.114,2.114c0.467,0,0.895-0.157,1.245-0.414l3.811,2.362
	C10.594,9.439,10.541,9.712,10.541,10c0,0.228,0.03,0.447,0.078,0.66l-3.934,2.453c-0.034-0.019-0.063-0.044-0.099-0.062
	c-1.047-0.517-2.314-0.087-2.831,0.96c-0.517,1.047-0.087,2.314,0.96,2.831s2.314,0.087,2.831-0.96
	c0.207-0.419,0.256-0.872,0.18-1.3l3.803-2.371C12.061,12.697,12.763,13,13.541,13c1.657,0,3-1.343,3-3S15.197,7,13.541,7z"/>
</svg>
