<?xml version="1.0" encoding="iso-8859-1"?>
<!-- Generator: Adobe Illustrator 18.0.0, SVG Export Plug-In . SVG Version: 6.00 Build 0)  -->
<!DOCTYPE svg PUBLIC "-//W3C//DTD SVG 1.1//EN" "http://www.w3.org/Graphics/SVG/1.1/DTD/svg11.dtd">
<svg version="1.1" id="&#x56FE;&#x5C42;_1" xmlns="http://www.w3.org/2000/svg" xmlns:xlink="http://www.w3.org/1999/xlink" x="0px"
	 y="0px" viewBox="0 0 24 24" style="enable-background:new 0 0 24 24;" xml:space="preserve">
<path style="fill:#B5B5B6;" d="M4,7v11c0,0.552,0.448,1,1,1h14c0.552,0,1-0.448,1-1V7c0-0.552-0.448-1-1-1H5C4.448,6,4,6.448,4,7z
	 M18,17H6V8h12V17z"/>
<path style="fill:#B5B5B6;" d="M7.27,15.68l2.58-3.442c0.072-0.096,0.211-0.107,0.298-0.025l1.184,1.127
	c0.088,0.084,0.231,0.07,0.301-0.029l2.148-3.038c0.087-0.123,0.274-0.109,0.342,0.026l2.712,5.412
	c0.067,0.133-0.03,0.29-0.179,0.29H7.43C7.265,16,7.171,15.812,7.27,15.68z"/>
<circle style="fill:#B5B5B6;" cx="8.988" cy="10.001" r="1"/>
</svg>
