<?xml version="1.0" encoding="iso-8859-1"?>
<!-- Generator: Adobe Illustrator 18.0.0, SVG Export Plug-In . SVG Version: 6.00 Build 0)  -->
<!DOCTYPE svg PUBLIC "-//W3C//DTD SVG 1.1//EN" "http://www.w3.org/Graphics/SVG/1.1/DTD/svg11.dtd">
<svg version="1.1" id="&#x56FE;&#x5C42;_1" xmlns="http://www.w3.org/2000/svg" xmlns:xlink="http://www.w3.org/1999/xlink" x="0px"
	 y="0px" viewBox="0 0 24 24" style="enable-background:new 0 0 24 24;" xml:space="preserve">
<g>
	<path style="fill:#01BDFF;" d="M16.526,8H16h-6H8.026C7.474,8,7,8.448,7,9v9c0,0.552,0.416,1,0.969,1h10.063
		C18.583,19,19,18.552,19,18v-7.5L16.526,8z M14,10v2h-2v-2H14z M17,17H9v-7h1v4h6v-3.563l1,0.875V17z"/>
	<path style="fill:#01BDFF;" d="M8,7h5V6h2v1h1V6h-0.013C15.953,5,15.53,5,15,5H5.936C5.419,5,5,5.419,5,5.936V16
		c0,0.552,0.448,1,1,1V6h2V7z"/>
</g>
</svg>
