<?xml version="1.0" encoding="iso-8859-1"?>
<!-- Generator: Adobe Illustrator 18.0.0, SVG Export Plug-In . SVG Version: 6.00 Build 0)  -->
<!DOCTYPE svg PUBLIC "-//W3C//DTD SVG 1.1//EN" "http://www.w3.org/Graphics/SVG/1.1/DTD/svg11.dtd">
<svg version="1.1" id="&#x56FE;&#x5C42;_1" xmlns="http://www.w3.org/2000/svg" xmlns:xlink="http://www.w3.org/1999/xlink" x="0px"
	 y="0px" viewBox="0 0 24 24" style="enable-background:new 0 0 24 24;" xml:space="preserve">
<path style="fill:#EFEFEF;" d="M4,7v11c0,0.552,0.448,1,1,1h14c0.552,0,1-0.448,1-1V7c0-0.552-0.448-1-1-1H5C4.448,6,4,6.448,4,7z
	 M18,17H6V8h12V17z"/>
<path style="fill:#EFEFEF;" d="M15,16H9c-0.552,0-1-0.448-1-1v0c0-0.552,0.448-1,1-1h6c0.552,0,1,0.448,1,1v0
	C16,15.552,15.552,16,15,16z"/>
</svg>
