<?xml version="1.0" encoding="iso-8859-1"?>
<!-- Generator: Adobe Illustrator 18.0.0, SVG Export Plug-In . SVG Version: 6.00 Build 0)  -->
<!DOCTYPE svg PUBLIC "-//W3C//DTD SVG 1.1//EN" "http://www.w3.org/Graphics/SVG/1.1/DTD/svg11.dtd">
<svg version="1.1" id="&#x56FE;&#x5C42;_1" xmlns="http://www.w3.org/2000/svg" xmlns:xlink="http://www.w3.org/1999/xlink" x="0px"
	 y="0px" viewBox="0 0 14 14" style="enable-background:new 0 0 14 14;" xml:space="preserve">
<g>
	<path style="fill:#FFFFFF;" d="M10.5,10.5c0.276,0,0.5-0.224,0.5-0.5V3.5c0-0.01-0.005-0.018-0.006-0.028
		c-0.003-0.055-0.011-0.11-0.033-0.162c-0.024-0.058-0.059-0.11-0.102-0.154c-0.002-0.002-0.003-0.006-0.005-0.008c0,0,0,0,0,0
		c-0.046-0.046-0.101-0.083-0.163-0.109C10.63,3.013,10.566,3,10.5,3c0,0,0,0,0,0H4C3.724,3,3.5,3.224,3.5,3.5S3.724,4,4,4h5.288
		l-7.143,7.105c-0.196,0.195-0.196,0.511-0.002,0.707c0.098,0.098,0.227,0.147,0.354,0.147s0.255-0.048,0.353-0.146L10,4.703V10
		C10,10.276,10.224,10.5,10.5,10.5z"/>
</g>
</svg>
