<?xml version="1.0" encoding="iso-8859-1"?>
<!-- Generator: Adobe Illustrator 18.0.0, SVG Export Plug-In . SVG Version: 6.00 Build 0)  -->
<!DOCTYPE svg PUBLIC "-//W3C//DTD SVG 1.1//EN" "http://www.w3.org/Graphics/SVG/1.1/DTD/svg11.dtd">
<svg version="1.1" id="&#x56FE;&#x5C42;_1" xmlns="http://www.w3.org/2000/svg" xmlns:xlink="http://www.w3.org/1999/xlink" x="0px"
	 y="0px" viewBox="0 0 14 14" style="enable-background:new 0 0 14 14;" xml:space="preserve">
<g>
	<path style="fill:#FFFFFF;" d="M11.355,2.668c-0.195-0.197-0.512-0.195-0.707-0.002L7.002,6.293L3.375,2.646
		C3.18,2.449,2.863,2.451,2.668,2.645C2.472,2.839,2.472,3.156,2.666,3.352l3.627,3.647l-3.646,3.627
		c-0.196,0.194-0.196,0.512-0.002,0.707c0.098,0.099,0.227,0.147,0.354,0.147s0.255-0.049,0.353-0.146l3.647-3.627l3.627,3.646
		c0.098,0.099,0.227,0.147,0.354,0.147s0.255-0.049,0.353-0.146c0.196-0.194,0.196-0.512,0.002-0.707L7.707,7.002l3.646-3.627
		C11.55,3.181,11.55,2.863,11.355,2.668z"/>
</g>
</svg>
