<?xml version="1.0" encoding="iso-8859-1"?>
<!-- Generator: Adobe Illustrator 18.0.0, SVG Export Plug-In . SVG Version: 6.00 Build 0)  -->
<!DOCTYPE svg PUBLIC "-//W3C//DTD SVG 1.1//EN" "http://www.w3.org/Graphics/SVG/1.1/DTD/svg11.dtd">
<svg version="1.1" id="&#x56FE;&#x5C42;_1" xmlns="http://www.w3.org/2000/svg" xmlns:xlink="http://www.w3.org/1999/xlink" x="0px"
	 y="0px" viewBox="0 0 14 14" style="enable-background:new 0 0 14 14;" xml:space="preserve">
<g>
	<path style="fill:#FFFFFF;" d="M9.886,4.957c-0.377,0-0.731,0.096-1.037,0.263C8.646,5.33,8.397,5.323,8.201,5.202L6.01,3.845
		C5.84,3.74,5.733,3.563,5.722,3.369C5.676,2.613,5.027,2,4.219,2C3.387,2,2.713,2.652,2.713,3.456c0,1.031,1.075,1.727,2.053,1.357
		c0.187-0.071,0.398-0.051,0.567,0.054L7.22,6.036c0.342,0.212,0.551,0.579,0.553,0.972v0C7.775,7.39,7.574,7.745,7.242,7.951
		L5.333,9.133C5.164,9.237,4.953,9.258,4.766,9.187c-0.979-0.371-2.053,0.327-2.053,1.357C2.713,11.348,3.387,12,4.219,12
		c0.808,0,1.458-0.613,1.503-1.369c0.012-0.194,0.119-0.372,0.288-0.476l2.191-1.357C8.397,8.677,8.646,8.67,8.849,8.78
		c0.306,0.167,0.66,0.263,1.037,0.263c1.167,0,2.113-0.915,2.113-2.043C11.998,5.871,11.053,4.957,9.886,4.957z"/>
</g>
</svg>
