<?xml version="1.0" encoding="UTF-8"?>
<svg width="32px" height="26px" viewBox="0 0 32 26" version="1.1" xmlns="http://www.w3.org/2000/svg" xmlns:xlink="http://www.w3.org/1999/xlink">
    <!-- Generator: Sketch 46.1 (44463) - http://www.bohemiancoding.com/sketch -->
    <title>colors_normal</title>
    <desc>Created with Sketch.</desc>
    <defs></defs>
    <g id="Page-1" stroke="none" stroke-width="1" fill="none" fill-rule="evenodd">
        <g id="图标-copy" transform="translate(-186.000000, -9.000000)">
            <g id="工具栏" transform="translate(21.000000, 9.000000)">
                <rect id="占位" fill="#000000" opacity="0" x="165" y="0" width="32" height="26"></rect>
                <g id="Group-8" transform="translate(173.000000, 5.000000)"></g>
                <g id="Group-4" transform="translate(172.000000, 4.000000)" fill-rule="nonzero">
                    <path d="M10.4900486,14.814022 C10.0080742,14.9370531 9.50905233,15 9,15 L9,17 C9.68509737,17 10.350081,16.9138827 10.9847163,16.7518826 L10.4900486,14.814022 Z" id="Oval-130" fill="#E0F000"></path>
                    <path d="M14.4033205,12.8936491 C13.9213461,13.0166802 13.428107,13.0565732 12.9190546,13.0565732 L12.9000484,15.0575433 C13.5591275,15.0723543 14.2307936,14.972924 14.8758073,14.8270432 L14.4033205,12.8936491 Z" id="Oval-130-Copy" fill="#FF9A30" transform="translate(13.887928, 13.976326) rotate(-37.000000) translate(-13.887928, -13.976326) "></path>
                    <path d="M15.7482658,8.89896636 C15.3865004,9.28153284 15.0506258,9.62604891 14.6466906,9.91590808 L15.8157836,11.5346285 C16.4224445,11.1367187 16.8426717,10.6370244 17.2846307,10.1847123 L15.7482658,8.89896636 Z" id="Oval-130-Copy-2" fill="#FF3030" transform="translate(15.965661, 10.216797) rotate(-37.000000) translate(-15.965661, -10.216797) "></path>
                    <path d="M15.1683906,4.66551935 C14.8066252,5.04808582 14.487582,5.39338093 14.0836468,5.68324009 L15.2546283,7.29028482 C15.8484984,6.8930841 16.2996686,6.38699118 16.7107822,5.92362702 L15.1683906,4.66551935 Z" id="Oval-130-Copy-3" fill="#AF00E9" transform="translate(15.397215, 5.977902) rotate(-72.000000) translate(-15.397215, -5.977902) "></path>
                    <path d="M12.1054228,1.46602662 C11.7665439,1.87916867 11.447516,2.20283877 11.0598275,2.51437248 L12.2883687,4.08839067 C12.8737166,3.64939092 13.3025364,3.14604481 13.7005702,2.67784747 L12.1054228,1.46602662 Z" id="Oval-130-Copy-4" fill="#4F22F9" transform="translate(12.380199, 2.777209) rotate(-106.000000) translate(-12.380199, -2.777209) "></path>
                    <path d="M7.84208131,0.662514169 C7.5032024,1.07565621 7.16014538,1.39441232 6.77245692,1.70594603 L7.97732667,3.30486219 C8.56267462,2.86586245 9.0136947,2.36787838 9.4117285,1.89968105 L7.84208131,0.662514169 Z" id="Oval-130-Copy-5" fill="#0066E7" transform="translate(8.092093, 1.983688) rotate(-143.000000) translate(-8.092093, -1.983688) "></path>
                    <path d="M3.8510375,2.57031942 C3.51215859,2.98346146 3.16837856,3.29225912 2.7806901,3.60379283 L3.96818798,5.21740548 C4.52098693,4.78816462 5.01542454,4.29497849 5.41345835,3.82678115 L3.8510375,2.57031942 Z" id="Oval-130-Copy-6" fill="#01C7FF" transform="translate(4.097074, 3.893862) rotate(-180.000000) translate(-4.097074, -3.893862) "></path>
                    <path d="M1.79112905,6.47988388 C1.45225014,6.89302592 1.10102436,7.21776809 0.713335907,7.52930181 L1.92188272,9.11869047 C2.49981924,8.70393068 2.95554481,8.19742927 3.35357862,7.72923193 L1.79112905,6.47988388 Z" id="Oval-130-Copy-7" fill="#00FFD8" transform="translate(2.033457, 7.799287) rotate(-216.000000) translate(-2.033457, -7.799287) "></path>
                    <path d="M2.37072897,10.7304204 C2.03185005,11.1435625 1.68753499,11.4634487 1.29984654,11.7749824 L2.52577126,13.34999 C3.10370779,12.9352302 3.54050004,12.4290868 3.93853384,11.9608894 L2.37072897,10.7304204 Z" id="Oval-130-Copy-8" fill="#00FF44" transform="translate(2.619190, 12.040205) rotate(-251.000000) translate(-2.619190, -12.040205) "></path>
                    <path d="M5.34526715,13.907496 C5.00638824,14.320638 4.70323513,14.6822932 4.31554667,14.9938269 L5.5837922,16.5389522 C6.13095002,16.080946 6.57501748,15.5640387 6.95571539,15.0895484 L5.34526715,13.907496 Z" id="Oval-130-Copy-9" fill="#BBF53A" transform="translate(5.635631, 15.223224) rotate(-285.000000) translate(-5.635631, -15.223224) "></path>
                </g>
            </g>
        </g>
    </g>
</svg>