<?xml version="1.0" encoding="iso-8859-1"?>
<!-- Generator: Adobe Illustrator 18.0.0, SVG Export Plug-In . SVG Version: 6.00 Build 0)  -->
<!DOCTYPE svg PUBLIC "-//W3C//DTD SVG 1.1//EN" "http://www.w3.org/Graphics/SVG/1.1/DTD/svg11.dtd">
<svg version="1.1" id="&#x56FE;&#x5C42;_1" xmlns="http://www.w3.org/2000/svg" xmlns:xlink="http://www.w3.org/1999/xlink" x="0px"
	 y="0px" viewBox="0 0 24 24" style="enable-background:new 0 0 24 24;" xml:space="preserve">
<g id="Page-1_51_" sketch:type="MSPage">
	<g id="&#x5173;&#x95ED;_hover_4_" sketch:type="MSArtboardGroup">
		<path id="Stroke-25_4_" sketch:type="MSShapeGroup" style="fill:#FF3B3B;" d="M13.52,12l4.49,4.49
			c0.391,0.391,0.391,1.024,0,1.414c-0.391,0.391-1.024,0.391-1.414,0l-4.49-4.49l-4.702,4.702c-0.391,0.391-1.024,0.391-1.414,0
			s-0.391-1.024,0-1.414L10.692,12L5.99,7.298c-0.391-0.391-0.391-1.024,0-1.414c0.391-0.391,1.024-0.391,1.414,0l4.702,4.702
			l4.49-4.49c0.391-0.391,1.024-0.391,1.414,0c0.391,0.391,0.391,1.024,0,1.414L13.52,12z"/>
	</g>
</g>
</svg>
