<?xml version="1.0" encoding="iso-8859-1"?>
<!-- Generator: Adobe Illustrator 18.0.0, SVG Export Plug-In . SVG Version: 6.00 Build 0)  -->
<!DOCTYPE svg PUBLIC "-//W3C//DTD SVG 1.1//EN" "http://www.w3.org/Graphics/SVG/1.1/DTD/svg11.dtd">
<svg version="1.1" id="&#x56FE;&#x5C42;_1" xmlns="http://www.w3.org/2000/svg" xmlns:xlink="http://www.w3.org/1999/xlink" x="0px"
	 y="0px" viewBox="0 0 24 24" style="enable-background:new 0 0 24 24;" xml:space="preserve">
<g id="Page-1_59_" sketch:type="MSPage">
	<g id="&#x5206;&#x4EAB;_press_5_" sketch:type="MSArtboardGroup">
		<path id="share-icon_5_" sketch:type="MSShapeGroup" style="fill:#01BDFF;" d="M15.542,9.139c-0.528,0-1.023,0.134-1.452,0.368
			c-0.283,0.155-0.632,0.145-0.906-0.024l-3.068-1.9C9.879,7.436,9.729,7.188,9.713,6.916C9.649,5.859,8.74,5,7.608,5
			C6.444,5,5.5,5.913,5.5,7.039c0,1.444,1.505,2.418,2.875,1.899c0.262-0.099,0.557-0.071,0.794,0.076l2.641,1.636
			c0.479,0.297,0.772,0.811,0.774,1.361v0c0.002,0.534-0.279,1.032-0.744,1.319l-2.672,1.655c-0.237,0.147-0.533,0.175-0.794,0.076
			C7.003,14.543,5.5,15.52,5.5,16.961C5.5,18.087,6.444,19,7.608,19c1.131,0,2.041-0.858,2.104-1.916
			c0.016-0.271,0.167-0.52,0.403-0.667l3.068-1.9c0.274-0.17,0.623-0.179,0.906-0.024c0.429,0.234,0.924,0.368,1.452,0.368
			c1.634,0,2.958-1.281,2.958-2.861C18.5,10.42,17.176,9.139,15.542,9.139L15.542,9.139z"/>
	</g>
</g>
</svg>
