<?xml version="1.0" encoding="iso-8859-1"?>
<!-- Generator: Adobe Illustrator 18.0.0, SVG Export Plug-In . SVG Version: 6.00 Build 0)  -->
<!DOCTYPE svg PUBLIC "-//W3C//DTD SVG 1.1//EN" "http://www.w3.org/Graphics/SVG/1.1/DTD/svg11.dtd">
<svg version="1.1" id="&#x56FE;&#x5C42;_1" xmlns="http://www.w3.org/2000/svg" xmlns:xlink="http://www.w3.org/1999/xlink" x="0px"
	 y="0px" viewBox="0 0 20 20" enable-background="new 0 0 20 20" xml:space="preserve">
<g>
	<path fill="#898989" d="M14.526,6H14H8H6.026C5.474,6,5,6.448,5,7v9c0,0.552,0.416,1,0.969,1h10.063C16.583,17,17,16.552,17,16V8.5
		L14.526,6z M12,8v2h-2V8H12z M15,15H7V8h1v4h6V8.438l1,0.875V15z"/>
	<path fill="#898989" d="M6,5h5V4h2v1h1V4h-0.013C13.953,3,13.53,3,13,3H3.936C3.419,3,3,3.419,3,3.936V14c0,0.552,0.448,1,1,1V4h2
		V5z"/>
</g>
</svg>
