<?xml version="1.0" encoding="UTF-8" standalone="no"?>
<svg width="23px" height="22px" viewBox="0 0 23 22" version="1.1" xmlns="http://www.w3.org/2000/svg" xmlns:xlink="http://www.w3.org/1999/xlink" xmlns:sketch="http://www.bohemiancoding.com/sketch/ns">
    <!-- Generator: Sketch 3.3.2 (12043) - http://www.bohemiancoding.com/sketch -->
    <title>g6443</title>
    <desc>Created with Sketch.</desc>
    <defs>
        <filter x="-50%" y="-50%" width="200%" height="200%" filterUnits="objectBoundingBox" id="filter-1">
            <feOffset dx="0" dy="1" in="SourceAlpha" result="shadowOffsetOuter1"></feOffset>
            <feGaussianBlur stdDeviation="1.5" in="shadowOffsetOuter1" result="shadowBlurOuter1"></feGaussianBlur>
            <feColorMatrix values="0 0 0 0 0   0 0 0 0 0   0 0 0 0 0  0 0 0 0.35 0" in="shadowBlurOuter1" type="matrix" result="shadowMatrixOuter1"></feColorMatrix>
            <feMerge>
                <feMergeNode in="shadowMatrixOuter1"></feMergeNode>
                <feMergeNode in="SourceGraphic"></feMergeNode>
            </feMerge>
        </filter>
    </defs>
    <g id="Page-1" stroke="none" stroke-width="1" fill="none" fill-rule="evenodd" sketch:type="MSPage">
        <g id="g6443" sketch:type="MSLayerGroup" transform="translate(3.500000, 2.000000)">
            <path d="M0.5,6.40862 C0.5,6.40862 0.58838,11.3347 0.58838,13.45602 C0.58838,15.57734 2.62132,15.488952 2.62132,15.488952 C2.62132,15.488952 13.49308,15.533146 14.20019,15.444757 C14.9073,15.356369 15.6144,14.781845 15.6144,14.074739 L15.6144,4.581494 C14.5718,3.322238 13.64959,3.340664 12.55206,3.473498 C12.42863,2.658898 12.39749,1.991468 11.60568,1.534316 L9.50267,1.526734 C9.44135,0.892361 9.12013,0.378652 8.67592,0.33035 L7.43404,0.374545 C6.86294,0.391392 6.44786,0.983048 6.45326,1.523593 L4.59267,1.523593 C3.89358,1.613768 3.53109,2.033397 3.5052,2.751227 L3.5052,10.185651 C3.5052,10.185651 3.59359,6.452814 2.26776,6.40862 L0.5,6.40862 L0.5,6.40862 Z" id="path5630" stroke="#FFFFFF" fill="#000000" filter="url(#filter-1)" sketch:type="MSShapeGroup"></path>
            <path d="M6.04637,1.987632 L6.48831,7.887554 L6.90815,2.009729 L6.04637,1.987632 L6.04637,1.987632 Z" id="path5632" fill="#FFFFFF" sketch:type="MSShapeGroup"></path>
            <path d="M9.07367,1.987632 L9.51561,7.887554 L9.93545,2.009729 L9.07367,1.987632 L9.07367,1.987632 Z" id="path5634" fill="#FFFFFF" sketch:type="MSShapeGroup"></path>
            <path d="M12.10097,3.843787 L12.38823,7.998039 L12.96275,3.887981 L12.10097,3.843787 L12.10097,3.843787 Z" id="path5636" fill="#FFFFFF" sketch:type="MSShapeGroup"></path>
        </g>
    </g>
</svg>