<?xml version="1.0" encoding="iso-8859-1"?>
<!-- Generator: Adobe Illustrator 18.0.0, SVG Export Plug-In . SVG Version: 6.00 Build 0)  -->
<!DOCTYPE svg PUBLIC "-//W3C//DTD SVG 1.1//EN" "http://www.w3.org/Graphics/SVG/1.1/DTD/svg11.dtd">
<svg version="1.1" id="&#x56FE;&#x5C42;_1" xmlns="http://www.w3.org/2000/svg" xmlns:xlink="http://www.w3.org/1999/xlink" x="0px"
	 y="0px" viewBox="0 0 30 20" enable-background="new 0 0 30 20" xml:space="preserve">
<g>
	<path opacity="0.1" fill="#FFFFFF" d="M25.667,19.5H4.333c-2.108,0-3.833-1.725-3.833-3.833V4.333C0.5,2.225,2.225,0.5,4.333,0.5
		h21.334c2.108,0,3.833,1.725,3.833,3.833v11.334C29.5,17.775,27.775,19.5,25.667,19.5z"/>
	<g>
		<path fill="none" stroke="#CBCBCB" stroke-miterlimit="10" d="M25.5,19.5h-21c-2.209,0-4-1.791-4-4v-11c0-2.209,1.791-4,4-4h21
			c2.209,0,4,1.791,4,4v11C29.5,17.709,27.709,19.5,25.5,19.5z"/>
	</g>
</g>
<g>
	<g>
		<path d="M7,3H6H5v6h1V7h1c1.104,0,2-0.895,2-2v0C9,3.895,8.105,3,7,3z M7,6H6V4h1c0.552,0,1,0.448,1,1S7.552,6,7,6z"/>
	</g>
	<g>
		<path d="M12.55,5.978c-0.135-0.083-0.321-0.123-0.558-0.123c-0.314,0-0.574,0.125-0.777,0.375
			c-0.204,0.251-0.307,0.581-0.307,0.99v1.766H10V5.083h0.908v0.794h0.017c0.232-0.574,0.632-0.861,1.2-0.861
			c0.184,0,0.326,0.018,0.425,0.053V5.978z"/>
	</g>
	<g>
		<path d="M16.023,8.947c-0.174,0.08-0.409,0.121-0.705,0.121c-0.809,0-1.302-0.381-1.302-1.143V5.875H13.33V5.146h0.686V4.222
			l0.885-0.215v1.139h1.123v0.729h-1.123v1.734c0,0.252,0.051,0.419,0.152,0.528S15.32,8.3,15.554,8.3
			c0.18,0,0.337-0.043,0.47-0.128V8.947z"/>
	</g>
	<path d="M13.092,13.01l-1.934,4.351c-0.36,0.807-1.08,1.156-2.004,1.156l-0.035-0.861c1.271,0.141,1.475-0.969,1.475-0.969L9,13.01
		h0.875l1.171,2.709l1.157-2.709H13.092z"/>
	<path d="M13.195,15.891c0.413,0.251,0.921,0.438,1.399,0.438c1.047,0,1.011-0.537,0.686-0.696c-0.154-0.075-0.423-0.213-0.85-0.347
		c-0.514-0.174-0.848-0.346-1.001-0.516c-0.154-0.17-0.231-0.376-0.231-0.618c0-0.345,0.174-0.622,0.522-0.829
		c0.347-0.208,0.776-0.312,1.285-0.312c0.393,0,0.759,0.057,1.097,0.173v0.829c-0.346-0.188-0.739-0.282-1.177-0.282
		c-0.262,0-0.481,0.042-0.641,0.144c-0.612,0.391,0.308,0.673,0.716,0.81c0.516,0.161,0.866,0.329,1.046,0.503
		c0.182,0.174,0.278,0.493,0.278,0.749c0,0.357-0.174,0.639-0.522,0.844c-0.347,0.205-0.797,0.308-1.35,0.308
		c-0.481,0-0.9-0.076-1.257-0.228V15.891z"/>
	<g>
		<path d="M25.013,18.595h-0.903l0.016-2.018c0,0-0.486,0.366-1.074,0.366c-0.477,0-0.857-0.168-1.144-0.504
			s-0.429-0.798-0.429-1.386c0-0.627,0.067-1.042,0.471-1.504c0.298-0.341,0.661-0.472,1.19-0.472c0.51,0,0.953,0.314,0.953,0.314
			l0.016-0.317h0.903V18.595z M24.203,14.654c0.003-0.269-0.082-0.498-0.253-0.688s-0.393-0.285-0.668-0.285
			c-0.315,0-0.562,0.119-0.742,0.357c-0.18,0.238-0.269,0.568-0.269,0.991c0,0.382,0.086,0.681,0.259,0.895
			c0.172,0.216,0.399,0.324,0.679,0.324c0.307,0,0.55-0.107,0.729-0.322c0.179-0.215,0.267-0.482,0.265-0.802V14.654z"/>
	</g>
	<g>
		<path d="M25.006,8.712c-0.315,0.173-0.694,0.26-1.138,0.26c-0.595,0-1.075-0.176-1.437-0.526
			c-0.361-0.351-0.542-0.806-0.542-1.363c0-0.62,0.195-1.12,0.586-1.499c0.39-0.38,0.913-0.569,1.568-0.569
			c0.377,0,0.7,0.062,0.967,0.185v0.831c-0.29-0.196-0.645-0.212-1-0.212c-0.417,0-0.749,0.14-1.017,0.398
			c-0.524,0.503-0.232,1.366,0.015,1.612s0.579,0.369,0.999,0.369c0.354,0,0.689-0.107,1.004-0.321L25.006,8.712z"/>
	</g>
	<g>
		<path d="M17.102,7.703c0.529,0.383,1.101,0.574,1.713,0.574c0.82,0,1.23-0.269,1.23-0.806c0-0.229-0.09-0.418-0.27-0.566
			c-0.179-0.148-0.542-0.325-1.09-0.529c-0.659-0.265-1.087-0.527-1.283-0.787c-0.197-0.26-0.296-0.573-0.296-0.942
			c0-0.526,0.223-0.948,0.669-1.265c0.445-0.317,0.994-0.476,1.646-0.476c0.504,0,0.974,0.088,1.406,0.264v1.015
			c-0.443-0.286-0.946-0.43-1.509-0.43c-0.337,0-0.61,0.073-0.821,0.22c-0.212,0.147-0.317,0.341-0.317,0.58
			c0,0.236,0.076,0.421,0.229,0.554s0.489,0.303,1.013,0.511c0.662,0.246,1.109,0.503,1.342,0.768
			c0.233,0.265,0.35,0.593,0.35,0.982c0,0.545-0.223,0.974-0.669,1.287c-0.445,0.313-1.022,0.47-1.731,0.47
			c-0.616,0-1.153-0.116-1.611-0.349V7.703z"/>
	</g>
	<g>
		<path d="M21.52,17h-0.94l-1.023-1.659c-0.204-0.332-0.391-0.557-0.561-0.677c-0.17-0.12-0.373-0.179-0.609-0.179h-0.573V17h-0.796
			v-5.975h1.88c0.6,0,1.07,0.14,1.41,0.42c0.339,0.281,0.51,0.672,0.51,1.177c0,0.828-0.457,1.366-1.37,1.612v0.019
			c0.17,0.069,0.317,0.169,0.44,0.297s0.284,0.348,0.48,0.66L21.52,17z M17.812,11.7v2.11h0.94c0.363,0,0.659-0.103,0.886-0.309
			c0.227-0.205,0.34-0.475,0.34-0.81c0-0.311-0.104-0.555-0.311-0.729c-0.207-0.175-0.509-0.262-0.904-0.262H17.812z"/>
	</g>
	<g>
		<path d="M5.107,15.717c0.529,0.383,1.101,0.574,1.713,0.574c0.82,0,1.23-0.269,1.23-0.806c0-0.229-0.09-0.418-0.27-0.566
			c-0.179-0.148-0.542-0.325-1.09-0.529c-0.659-0.265-1.087-0.527-1.283-0.787c-0.197-0.26-0.296-0.573-0.296-0.942
			c0-0.526,0.223-0.948,0.669-1.265c0.445-0.317,0.994-0.476,1.646-0.476c0.504,0,0.974,0.088,1.406,0.264v1.015
			c-0.443-0.286-0.946-0.43-1.509-0.43c-0.337,0-0.61,0.073-0.821,0.22c-0.212,0.147-0.317,0.341-0.317,0.58
			c0,0.236,0.076,0.421,0.229,0.554s0.489,0.303,1.013,0.511C8.09,13.879,8.537,14.136,8.77,14.4c0.233,0.265,0.35,0.593,0.35,0.982
			c0,0.545-0.223,0.974-0.669,1.287c-0.445,0.313-1.022,0.47-1.731,0.47c-0.616,0-1.153-0.116-1.611-0.349V15.717z"/>
	</g>
</g>
</svg>
