<?xml version="1.0" encoding="UTF-8"?>
<svg width="22px" height="26px" viewBox="0 0 22 26" version="1.1" xmlns="http://www.w3.org/2000/svg" xmlns:xlink="http://www.w3.org/1999/xlink">
    <!-- Generator: Sketch 44.1 (41455) - http://www.bohemiancoding.com/sketch -->
    <title>矩形</title>
    <desc>Created with Sketch.</desc>
    <defs>
        <polygon id="path-1" points="8.82858772 20 0 20 0 0.557816943 13.3203368 14.0960301"></polygon>
        <filter x="-37.5%" y="-20.6%" width="175.1%" height="151.4%" filterUnits="objectBoundingBox" id="filter-2">
            <feOffset dx="0" dy="1" in="SourceAlpha" result="shadowOffsetOuter1"></feOffset>
            <feGaussianBlur stdDeviation="1.5" in="shadowOffsetOuter1" result="shadowBlurOuter1"></feGaussianBlur>
            <feColorMatrix values="0 0 0 0 0   0 0 0 0 0   0 0 0 0 0  0 0 0 0.4 0" type="matrix" in="shadowBlurOuter1"></feColorMatrix>
        </filter>
        <linearGradient x1="50%" y1="0%" x2="50%" y2="100%" id="linearGradient-3">
            <stop stop-color="#393939" offset="0%"></stop>
            <stop stop-color="#000000" offset="100%"></stop>
        </linearGradient>
        <path d="M11,5 L15,5 L15,1 L11,1 L11,5 Z M10,0 L16,0 L16,6 L10,6 L10,0 Z" id="path-4"></path>
    </defs>
    <g id="Page-1" stroke="none" stroke-width="1" fill="none" fill-rule="evenodd">
        <g id="矩形" transform="translate(3.000000, 2.000000)">
            <g id="Group">
                <g id="path5565-copy-2" fill-rule="nonzero">
                    <use fill="black" fill-opacity="1" filter="url(#filter-2)" xlink:href="#path-1"></use>
                    <use fill="#FFFFFF" fill-rule="evenodd" xlink:href="#path-1"></use>
                </g>
                <polygon id="Path" fill="url(#linearGradient-3)" points="1 19 8.33287859 19 12 14.1799234 1 3"></polygon>
            </g>
            <g id="Rectangle-79" fill-rule="nonzero">
                <use fill="#FFFFFF" fill-rule="evenodd" xlink:href="#path-4"></use>
                <path stroke-opacity="0.2" stroke="#000000" stroke-width="1" d="M11.5,1.5 L11.5,1 L11,1.5 L11.5,1.5 Z M14.5,1.5 L15,1.5 L14.5,1 L14.5,1.5 Z M14.5,4.5 L14.5,5 L15,4.5 L14.5,4.5 Z M11.5,4.5 L11,4.5 L11.5,5 L11.5,4.5 Z M11.5,4.5 L11.5,1.5 L14.5,1.5 L14.5,4.5 L11.5,4.5 Z M9.5,-0.5 L16.5,-0.5 L16.5,6.5 L9.5,6.5 L9.5,-0.5 Z"></path>
            </g>
        </g>
    </g>
</svg>