<?xml version="1.0" encoding="iso-8859-1"?>
<!-- Generator: Adobe Illustrator 18.0.0, SVG Export Plug-In . SVG Version: 6.00 Build 0)  -->
<!DOCTYPE svg PUBLIC "-//W3C//DTD SVG 1.1//EN" "http://www.w3.org/Graphics/SVG/1.1/DTD/svg11.dtd">
<svg version="1.1" id="&#x56FE;&#x5C42;_1" xmlns="http://www.w3.org/2000/svg" xmlns:xlink="http://www.w3.org/1999/xlink" x="0px"
	 y="0px" viewBox="0 0 20 20" enable-background="new 0 0 20 20" xml:space="preserve">
<g>
	<path opacity="0.1" fill="#FFFFFF" d="M15.7,19.5H4.3c-2.09,0-3.8-1.71-3.8-3.8V4.3c0-2.09,1.71-3.8,3.8-3.8h11.4
		c2.09,0,3.8,1.71,3.8,3.8v11.4C19.5,17.79,17.79,19.5,15.7,19.5z"/>
	<path fill="none" stroke="#CBCBCB" stroke-miterlimit="10" d="M15.5,19.5h-11c-2.209,0-4-1.791-4-4v-11c0-2.209,1.791-4,4-4h11
		c2.209,0,4,1.791,4,4v11C19.5,17.709,17.709,19.5,15.5,19.5z"/>
	<g>
		<path d="M9.451,13.992c-0.383,0-0.837-0.049-1.349-0.145c-0.505-0.095-0.877-0.213-1.104-0.352l0.035-1.277
			c0.29,0.194,0.654,0.359,1.087,0.49c0.511,0.156,1.006,0.235,1.469,0.235c1.386,0,2.187-0.195,2.187-1.189
			c0-0.271-0.082-0.518-0.243-0.735c-0.155-0.208-0.371-0.395-0.641-0.556c-0.264-0.156-0.745-0.389-1.47-0.712
			c-0.971-0.436-1.617-0.844-1.92-1.211C7.203,8.181,7.052,7.763,7.052,7.299c0-0.709,0.309-1.257,0.943-1.674
			c0.638-0.42,1.683-0.633,2.662-0.633c0.71,0,1.332,0.159,2.343,0.485v1.009c-1.011-0.283-1.467-0.58-2.413-0.58
			c-0.619,0-1.245,0.12-1.64,0.357c-0.399,0.239-0.701,0.48-0.701,0.939c0,0.39,0.116,0.713,0.402,0.958
			c0.272,0.234,0.828,0.542,1.726,0.942c0.953,0.411,1.618,0.825,1.993,1.23c0.367,0.396,0.55,0.847,0.55,1.339
			c0,0.752-0.296,1.312-0.9,1.714C11.409,13.787,10.544,13.992,9.451,13.992z"/>
	</g>
</g>
</svg>
