<?xml version="1.0" encoding="iso-8859-1"?>
<!-- Generator: Adobe Illustrator 18.0.0, SVG Export Plug-In . SVG Version: 6.00 Build 0)  -->
<!DOCTYPE svg PUBLIC "-//W3C//DTD SVG 1.1//EN" "http://www.w3.org/Graphics/SVG/1.1/DTD/svg11.dtd">
<svg version="1.1" id="&#x56FE;&#x5C42;_1" xmlns="http://www.w3.org/2000/svg" xmlns:xlink="http://www.w3.org/1999/xlink" x="0px"
	 y="0px" viewBox="0 0 64 64" enable-background="new 0 0 64 64" xml:space="preserve">
<g>
	<path fill="#B5B5B6" d="M51,11H13c-1.657,0-3,1.343-3,3v38c0,1.657,1.343,3,3,3h38c1.657,0,3-1.343,3-3V14
		C54,12.343,52.657,11,51,11z M31,24.188c-1.053-0.497-1.7-0.828-4.188-0.828c-1.449,0-2.813,1.172-2.813,3.203V29h6v3h-6v13h-3V32
		h-5v-3h5v-2.843c0-1.678,0.567-2.981,1.593-3.914c1.024-0.929,2.363-1.396,4.039-1.396c1.494,0,3.367,0.222,4.367,0.697V24.188z
		 M46,45h-3v-8.366c0-0.587,0.25-3.416-0.719-4.384c-1.095-1.095-3.859-1.422-5.77,0.489C35.33,33.92,35,35.912,35,37.793V45h-3V29
		h3v2.591c2.094-2.466,4.427-2.691,5.838-2.691c3.006,0,5.162,1.975,5.162,4.941V45z"/>
</g>
</svg>
